<svg width="54" height="46" viewBox="0 0 54 46" fill="none" xmlns="http://www.w3.org/2000/svg">
<rect width="54" height="46" rx="5" fill="#00C6BF"/>
<path d="M30.4996 25H29.7096L29.4296 24.73C30.6296 23.33 31.2496 21.42 30.9096 19.39C30.4396 16.61 28.1196 14.39 25.3196 14.05C21.0896 13.53 17.5296 17.09 18.0496 21.32C18.3896 24.12 20.6096 26.44 23.3896 26.91C25.4196 27.25 27.3296 26.63 28.7296 25.43L28.9996 25.71V26.5L33.2496 30.75C33.6596 31.16 34.3296 31.16 34.7396 30.75C35.1496 30.34 35.1496 29.67 34.7396 29.26L30.4996 25ZM24.4996 25C22.0096 25 19.9996 22.99 19.9996 20.5C19.9996 18.01 22.0096 16 24.4996 16C26.9896 16 28.9996 18.01 28.9996 20.5C28.9996 22.99 26.9896 25 24.4996 25Z" fill="white"/>
</svg>
