<svg width="26" height="26" viewBox="0 0 26 26" fill="none" xmlns="http://www.w3.org/2000/svg">
<rect width="26" height="26" rx="5.2" fill="#2787F5"/>
<path fill-rule="evenodd" clip-rule="evenodd" d="M6.85657 6.85706C5.84961 7.85806 5.84961 9.47872 5.84961 12.7141V13.2861C5.84961 16.5215 5.84961 18.1421 6.85657 19.1431C7.85757 20.1501 9.47823 20.1501 12.7136 20.1501H13.2856C16.521 20.1501 18.1417 20.1501 19.1426 19.1431C20.1496 18.1421 20.1496 16.5215 20.1496 13.2861V12.7141C20.1496 9.47872 20.1496 7.85806 19.1426 6.85706C18.1417 5.8501 16.521 5.8501 13.2856 5.8501H12.7136C9.47823 5.8501 7.85757 5.8501 6.85657 6.85706ZM8.26353 10.1997C8.34098 13.9177 10.2 16.1521 13.4592 16.1521H13.6439V14.025C14.2188 14.0974 14.7595 14.3378 15.1983 14.7162C15.6371 15.0946 15.9545 15.5941 16.1106 16.1521H17.8028C17.6289 15.5097 17.3207 14.9115 16.8985 14.3969C16.4764 13.8823 15.95 13.4631 15.3539 13.167C15.8879 12.8429 16.3492 12.412 16.7091 11.9015C17.0689 11.3909 17.3196 10.8116 17.4453 10.1997H15.9081C15.5744 11.3795 14.5853 12.452 13.6439 12.5533V10.1997H12.1066V14.3229C11.1533 14.0846 9.94973 12.9286 9.89611 10.1997H8.26353Z" fill="#FBFBFD"/>
</svg>
