<svg width="199" height="26" viewBox="0 0 199 26" fill="none" xmlns="http://www.w3.org/2000/svg">
<rect width="26" height="26" rx="5.2" fill="#25D366"/>
<path d="M16.2495 14.43C16.0545 14.365 15.2095 13.91 15.0145 13.845C14.8195 13.78 14.7545 13.78 14.6245 13.91C14.4456 14.1611 14.2502 14.3999 14.0395 14.625C13.9095 14.755 13.8445 14.755 13.6495 14.69C13.1061 14.5071 12.6153 14.1948 12.2195 13.78C11.8165 13.4364 11.4852 13.0167 11.2445 12.545C11.1145 12.35 11.2445 12.285 11.3095 12.155C11.4116 12.06 11.4992 11.9505 11.5695 11.83C11.6345 11.7 11.6995 11.635 11.7645 11.505C11.8295 11.375 11.7645 11.31 11.7645 11.18C11.7645 11.05 11.3745 10.205 11.1795 9.87997C10.9845 9.55497 10.9195 9.55497 10.7895 9.55497H10.4645C10.2942 9.56257 10.1324 9.63188 10.0095 9.74997C9.79579 9.93433 9.62639 10.1645 9.51386 10.4233C9.40133 10.6821 9.34857 10.963 9.35948 11.245C9.41905 11.9095 9.66711 12.5431 10.0745 13.0715C10.8129 14.2413 11.877 15.1698 13.136 15.743C13.591 15.938 13.916 16.003 14.176 16.133C14.5329 16.2475 14.9131 16.2698 15.281 16.198C15.777 16.0655 16.2128 15.7674 16.516 15.353C16.5981 15.0787 16.6419 14.7943 16.646 14.508C16.5132 14.5091 16.3812 14.4871 16.256 14.443L16.2495 14.43ZM12.9995 18.85C11.9197 18.8629 10.8583 18.57 9.93798 18.005L9.74298 17.875L7.46148 18.46L8.05298 16.25L7.92298 16.055C7.32881 15.0964 7.01367 13.9912 7.01298 12.8635C7.0117 11.6776 7.36225 10.518 8.02028 9.5315C8.6783 8.54496 9.61422 7.77581 10.7096 7.32141C11.8049 6.86701 13.0104 6.74778 14.1736 6.97881C15.3367 7.20985 16.4051 7.78076 17.2437 8.61929C18.0822 9.45781 18.6531 10.5263 18.8841 11.6894C19.1152 12.8525 18.9959 14.0581 18.5415 15.1534C18.0871 16.2487 17.318 17.1847 16.3315 17.8427C15.3449 18.5007 14.1853 18.8513 12.9995 18.85ZM18.076 7.85197C16.7111 6.53638 14.895 5.79227 12.9995 5.77197C11.1032 5.77197 9.28456 6.52527 7.94367 7.86616C6.60279 9.20704 5.84948 11.0257 5.84948 12.922C5.84917 14.1814 6.18581 15.418 6.82448 16.5035L5.77148 20.228L9.61298 19.253C10.6708 19.829 11.8602 20.1202 13.0645 20.098C14.0034 20.098 14.9332 19.913 15.8007 19.5537C16.6681 19.1944 17.4564 18.6677 18.1203 18.0038C18.7842 17.3398 19.3109 16.5516 19.6702 15.6842C20.0295 14.8167 20.2145 13.8869 20.2145 12.948C20.1684 11.0439 19.3992 9.22877 18.063 7.87147" fill="#FBFBFD"/>
<path d="M36.048 17.112C35.8347 17.112 35.6693 17.0533 35.552 16.936C35.4453 16.808 35.392 16.6373 35.392 16.424V6.296C35.392 6.072 35.4453 5.90133 35.552 5.784C35.6693 5.66667 35.8347 5.608 36.048 5.608C36.2613 5.608 36.4213 5.66667 36.528 5.784C36.6453 5.90133 36.704 6.072 36.704 6.296V10.712H43.472V6.296C43.472 6.072 43.5253 5.90133 43.632 5.784C43.7493 5.66667 43.9147 5.608 44.128 5.608C44.3413 5.608 44.5013 5.66667 44.608 5.784C44.7253 5.90133 44.784 6.072 44.784 6.296V16.424C44.784 16.6373 44.7253 16.808 44.608 16.936C44.5013 17.0533 44.3413 17.112 44.128 17.112C43.9147 17.112 43.7493 17.0533 43.632 16.936C43.5253 16.808 43.472 16.6373 43.472 16.424V11.848H36.704V16.424C36.704 16.6373 36.6507 16.808 36.544 16.936C36.4373 17.0533 36.272 17.112 36.048 17.112ZM49.9159 17.144C49.3825 17.144 48.9025 17.0427 48.4759 16.84C48.0599 16.6267 47.7292 16.3387 47.4839 15.976C47.2385 15.6133 47.1159 15.208 47.1159 14.76C47.1159 14.184 47.2599 13.7307 47.5479 13.4C47.8465 13.0693 48.3319 12.8347 49.0039 12.696C49.6865 12.5573 50.6145 12.488 51.7879 12.488H52.5079V13.336H51.8039C50.9399 13.336 50.2572 13.3787 49.7559 13.464C49.2652 13.5387 48.9185 13.672 48.7159 13.864C48.5239 14.056 48.4279 14.328 48.4279 14.68C48.4279 15.1173 48.5772 15.4747 48.8759 15.752C49.1852 16.0293 49.6012 16.168 50.1239 16.168C50.5505 16.168 50.9239 16.0667 51.2439 15.864C51.5745 15.6613 51.8305 15.384 52.0119 15.032C52.2039 14.68 52.2999 14.2747 52.2999 13.816V11.992C52.2999 11.3307 52.1665 10.856 51.8999 10.568C51.6332 10.2693 51.1959 10.12 50.5879 10.12C50.2145 10.12 49.8412 10.168 49.4679 10.264C49.0945 10.36 48.6999 10.5147 48.2839 10.728C48.1345 10.8027 48.0065 10.8293 47.8999 10.808C47.7932 10.776 47.7079 10.7173 47.6439 10.632C47.5799 10.5467 47.5425 10.4507 47.5319 10.344C47.5212 10.2267 47.5425 10.1147 47.5959 10.008C47.6599 9.90133 47.7559 9.816 47.8839 9.752C48.3532 9.51733 48.8172 9.34667 49.2759 9.24C49.7345 9.13333 50.1719 9.08 50.5879 9.08C51.2599 9.08 51.8145 9.192 52.2519 9.416C52.6892 9.62933 53.0145 9.96 53.2279 10.408C53.4412 10.8453 53.5479 11.4107 53.5479 12.104V16.44C53.5479 16.6533 53.4945 16.8187 53.3879 16.936C53.2919 17.0533 53.1479 17.112 52.9559 17.112C52.7532 17.112 52.5985 17.0533 52.4919 16.936C52.3852 16.8187 52.3319 16.6533 52.3319 16.44V15.192H52.4759C52.3905 15.5973 52.2252 15.944 51.9799 16.232C51.7452 16.52 51.4519 16.744 51.0999 16.904C50.7479 17.064 50.3532 17.144 49.9159 17.144ZM56.7329 17.112C56.5195 17.112 56.3542 17.0533 56.2369 16.936C56.1302 16.8187 56.0769 16.6533 56.0769 16.44V9.96C56.0769 9.71467 56.1409 9.53333 56.2689 9.416C56.3969 9.288 56.5782 9.224 56.8129 9.224H62.1249C62.3595 9.224 62.5409 9.288 62.6689 9.416C62.7969 9.53333 62.8609 9.71467 62.8609 9.96V16.44C62.8609 16.6533 62.8022 16.8187 62.6849 16.936C62.5675 17.0533 62.4075 17.112 62.2049 17.112C62.0022 17.112 61.8422 17.0533 61.7249 16.936C61.6182 16.8187 61.5649 16.6533 61.5649 16.44V10.264H57.3729V16.44C57.3729 16.6533 57.3195 16.8187 57.2129 16.936C57.1062 17.0533 56.9462 17.112 56.7329 17.112ZM66.0126 17.112C65.8953 17.112 65.7886 17.0853 65.6926 17.032C65.6073 16.9893 65.538 16.9147 65.4846 16.808C65.442 16.7013 65.4206 16.568 65.4206 16.408V9.752C65.4206 9.53867 65.474 9.37867 65.5806 9.272C65.6873 9.16533 65.8313 9.112 66.0126 9.112C66.2046 9.112 66.3486 9.16533 66.4446 9.272C66.5513 9.37867 66.6046 9.53867 66.6046 9.752V15.768H66.2046L70.8606 9.528C70.946 9.41067 71.0473 9.31467 71.1646 9.24C71.282 9.15467 71.4313 9.112 71.6126 9.112C71.7406 9.112 71.8473 9.13333 71.9326 9.176C72.018 9.21867 72.082 9.29333 72.1246 9.4C72.178 9.496 72.2046 9.62933 72.2046 9.8V16.472C72.2046 16.6747 72.1513 16.8347 72.0446 16.952C71.9486 17.0587 71.8046 17.112 71.6126 17.112C71.4206 17.112 71.2713 17.0587 71.1646 16.952C71.0686 16.8347 71.0206 16.6747 71.0206 16.472V10.44H71.4206L66.7486 16.696C66.674 16.8027 66.578 16.8987 66.4606 16.984C66.354 17.0693 66.2046 17.112 66.0126 17.112ZM78.0764 17.144C77.2977 17.144 76.6257 16.9733 76.0604 16.632C75.495 16.2907 75.0577 15.816 74.7484 15.208C74.4497 14.5893 74.3004 13.8747 74.3004 13.064C74.3004 12.4453 74.3857 11.8907 74.5564 11.4C74.727 10.9093 74.9777 10.4933 75.3084 10.152C75.639 9.8 76.0337 9.53333 76.4924 9.352C76.9617 9.17067 77.4897 9.08 78.0764 9.08C78.4604 9.08 78.8604 9.13867 79.2764 9.256C79.6924 9.37333 80.071 9.576 80.4124 9.864C80.519 9.93867 80.5884 10.0293 80.6204 10.136C80.6524 10.2427 80.6524 10.3493 80.6204 10.456C80.5884 10.552 80.535 10.6373 80.4604 10.712C80.3857 10.776 80.2897 10.8133 80.1724 10.824C80.0657 10.8347 79.9537 10.7973 79.8364 10.712C79.559 10.4987 79.2764 10.3493 78.9884 10.264C78.7004 10.1787 78.423 10.136 78.1564 10.136C77.7404 10.136 77.3777 10.2053 77.0684 10.344C76.759 10.472 76.4977 10.6587 76.2844 10.904C76.071 11.1493 75.9057 11.4533 75.7884 11.816C75.6817 12.1787 75.6284 12.6 75.6284 13.08C75.6284 14.008 75.847 14.744 76.2844 15.288C76.7217 15.8213 77.3457 16.088 78.1564 16.088C78.423 16.088 78.695 16.0453 78.9724 15.96C79.2604 15.8747 79.5484 15.7253 79.8364 15.512C79.9537 15.4267 80.0657 15.3893 80.1724 15.4C80.279 15.4107 80.3697 15.4533 80.4444 15.528C80.519 15.592 80.567 15.6773 80.5884 15.784C80.6204 15.8907 80.6204 15.9973 80.5884 16.104C80.5564 16.2 80.487 16.2853 80.3804 16.36C80.039 16.6373 79.6657 16.84 79.2604 16.968C78.855 17.0853 78.4604 17.144 78.0764 17.144ZM84.7909 17.144C84.2575 17.144 83.7775 17.0427 83.3509 16.84C82.9349 16.6267 82.6042 16.3387 82.3589 15.976C82.1135 15.6133 81.9909 15.208 81.9909 14.76C81.9909 14.184 82.1349 13.7307 82.4229 13.4C82.7215 13.0693 83.2069 12.8347 83.8789 12.696C84.5615 12.5573 85.4895 12.488 86.6629 12.488H87.3829V13.336H86.6789C85.8149 13.336 85.1322 13.3787 84.6309 13.464C84.1402 13.5387 83.7935 13.672 83.5909 13.864C83.3989 14.056 83.3029 14.328 83.3029 14.68C83.3029 15.1173 83.4522 15.4747 83.7509 15.752C84.0602 16.0293 84.4762 16.168 84.9989 16.168C85.4255 16.168 85.7989 16.0667 86.1189 15.864C86.4495 15.6613 86.7055 15.384 86.8869 15.032C87.0789 14.68 87.1749 14.2747 87.1749 13.816V11.992C87.1749 11.3307 87.0415 10.856 86.7749 10.568C86.5082 10.2693 86.0709 10.12 85.4629 10.12C85.0895 10.12 84.7162 10.168 84.3429 10.264C83.9695 10.36 83.5749 10.5147 83.1589 10.728C83.0095 10.8027 82.8815 10.8293 82.7749 10.808C82.6682 10.776 82.5829 10.7173 82.5189 10.632C82.4549 10.5467 82.4175 10.4507 82.4069 10.344C82.3962 10.2267 82.4175 10.1147 82.4709 10.008C82.5349 9.90133 82.6309 9.816 82.7589 9.752C83.2282 9.51733 83.6922 9.34667 84.1509 9.24C84.6095 9.13333 85.0469 9.08 85.4629 9.08C86.1349 9.08 86.6895 9.192 87.1269 9.416C87.5642 9.62933 87.8895 9.96 88.1029 10.408C88.3162 10.8453 88.4229 11.4107 88.4229 12.104V16.44C88.4229 16.6533 88.3695 16.8187 88.2629 16.936C88.1669 17.0533 88.0229 17.112 87.8309 17.112C87.6282 17.112 87.4735 17.0533 87.3669 16.936C87.2602 16.8187 87.2069 16.6533 87.2069 16.44V15.192H87.3509C87.2655 15.5973 87.1002 15.944 86.8549 16.232C86.6202 16.52 86.3269 16.744 85.9749 16.904C85.6229 17.064 85.2282 17.144 84.7909 17.144ZM93.2239 17.112C93.0212 17.112 92.8612 17.0533 92.7439 16.936C92.6265 16.8187 92.5679 16.6533 92.5679 16.44V10.264H90.2319C89.8265 10.264 89.6239 10.088 89.6239 9.736C89.6239 9.576 89.6772 9.45333 89.7839 9.368C89.8905 9.272 90.0399 9.224 90.2319 9.224H96.2159C96.6105 9.224 96.8079 9.39467 96.8079 9.736C96.8079 9.90667 96.7545 10.04 96.6479 10.136C96.5519 10.2213 96.4079 10.264 96.2159 10.264H93.8639V16.44C93.8639 16.6533 93.8105 16.8187 93.7039 16.936C93.6079 17.0533 93.4479 17.112 93.2239 17.112ZM98.7333 17C98.5199 17 98.3546 16.9413 98.2373 16.824C98.1199 16.7067 98.0613 16.5413 98.0613 16.328V9.768C98.0613 9.544 98.1146 9.37867 98.2213 9.272C98.3386 9.16533 98.5039 9.112 98.7173 9.112C98.9199 9.112 99.0746 9.16533 99.1813 9.272C99.2986 9.37867 99.3573 9.544 99.3573 9.768V11.992H101.709C102.701 11.992 103.453 12.2107 103.965 12.648C104.477 13.0747 104.733 13.6827 104.733 14.472C104.733 14.9947 104.611 15.448 104.365 15.832C104.131 16.2053 103.789 16.4933 103.341 16.696C102.904 16.8987 102.36 17 101.709 17H98.7333ZM99.3573 16.072H101.581C102.189 16.072 102.659 15.944 102.989 15.688C103.32 15.4213 103.485 15.0213 103.485 14.488C103.485 13.944 103.32 13.5493 102.989 13.304C102.659 13.048 102.189 12.92 101.581 12.92H99.3573V16.072ZM111.452 17C111.239 17 111.073 16.9413 110.956 16.824C110.839 16.7067 110.78 16.5413 110.78 16.328V9.896C110.78 9.68267 110.839 9.51733 110.956 9.4C111.073 9.28267 111.239 9.224 111.452 9.224H114.572C115.191 9.224 115.697 9.304 116.092 9.464C116.487 9.61333 116.78 9.84267 116.972 10.152C117.164 10.4507 117.26 10.824 117.26 11.272C117.26 11.7627 117.084 12.1787 116.732 12.52C116.391 12.8613 115.943 13.064 115.388 13.128V12.92C116.049 12.9413 116.567 13.128 116.94 13.48C117.324 13.832 117.516 14.2907 117.516 14.856C117.516 15.5173 117.271 16.04 116.78 16.424C116.289 16.808 115.596 17 114.7 17H111.452ZM112.012 16.12H114.652C115.175 16.12 115.575 16.008 115.852 15.784C116.14 15.5493 116.284 15.2187 116.284 14.792C116.284 14.3653 116.14 14.04 115.852 13.816C115.575 13.592 115.175 13.48 114.652 13.48H112.012V16.12ZM112.012 12.6H114.508C114.988 12.6 115.361 12.488 115.628 12.264C115.905 12.04 116.044 11.7307 116.044 11.336C116.044 10.9413 115.905 10.6373 115.628 10.424C115.361 10.2107 114.988 10.104 114.508 10.104H112.012V12.6ZM127.383 17.112C127.191 17.112 127.036 17.064 126.919 16.968C126.802 16.8613 126.706 16.7067 126.631 16.504L123.095 6.408C123.02 6.184 123.036 5.99733 123.143 5.848C123.26 5.688 123.442 5.608 123.687 5.608C123.868 5.608 124.012 5.656 124.119 5.752C124.226 5.83733 124.316 5.976 124.391 6.168L127.703 15.88H127.143L130.519 6.216C130.594 6.01333 130.684 5.864 130.791 5.768C130.898 5.66133 131.042 5.608 131.223 5.608C131.394 5.608 131.527 5.66133 131.623 5.768C131.73 5.864 131.82 6.01333 131.895 6.216L135.223 15.88H134.727L138.071 6.168C138.124 5.98667 138.204 5.848 138.311 5.752C138.428 5.656 138.578 5.608 138.759 5.608C138.983 5.608 139.148 5.68267 139.255 5.832C139.362 5.98133 139.372 6.17333 139.287 6.408L135.735 16.504C135.66 16.7067 135.564 16.8613 135.447 16.968C135.34 17.064 135.186 17.112 134.983 17.112C134.791 17.112 134.636 17.064 134.519 16.968C134.412 16.8613 134.316 16.7067 134.231 16.504L131.015 7.24H131.367L128.119 16.504C128.044 16.7067 127.954 16.8613 127.847 16.968C127.74 17.064 127.586 17.112 127.383 17.112ZM142.215 17.112C142.002 17.112 141.842 17.0533 141.735 16.936C141.629 16.8187 141.575 16.6533 141.575 16.44V6.264C141.575 6.05067 141.629 5.89067 141.735 5.784C141.842 5.66667 142.002 5.608 142.215 5.608C142.418 5.608 142.578 5.66667 142.695 5.784C142.813 5.89067 142.871 6.05067 142.871 6.264V10.952H142.663C142.887 10.3333 143.25 9.86933 143.751 9.56C144.263 9.24 144.85 9.08 145.511 9.08C146.13 9.08 146.642 9.192 147.047 9.416C147.463 9.64 147.773 9.98133 147.975 10.44C148.178 10.888 148.279 11.4587 148.279 12.152V16.44C148.279 16.6533 148.221 16.8187 148.103 16.936C147.997 17.0533 147.842 17.112 147.639 17.112C147.426 17.112 147.261 17.0533 147.143 16.936C147.037 16.8187 146.983 16.6533 146.983 16.44V12.232C146.983 11.5067 146.839 10.9787 146.551 10.648C146.274 10.3067 145.826 10.136 145.207 10.136C144.493 10.136 143.922 10.36 143.495 10.808C143.079 11.2453 142.871 11.832 142.871 12.568V16.44C142.871 16.888 142.653 17.112 142.215 17.112ZM153.117 17.144C152.584 17.144 152.104 17.0427 151.677 16.84C151.261 16.6267 150.93 16.3387 150.685 15.976C150.44 15.6133 150.317 15.208 150.317 14.76C150.317 14.184 150.461 13.7307 150.749 13.4C151.048 13.0693 151.533 12.8347 152.205 12.696C152.888 12.5573 153.816 12.488 154.989 12.488H155.709V13.336H155.005C154.141 13.336 153.458 13.3787 152.957 13.464C152.466 13.5387 152.12 13.672 151.917 13.864C151.725 14.056 151.629 14.328 151.629 14.68C151.629 15.1173 151.778 15.4747 152.077 15.752C152.386 16.0293 152.802 16.168 153.325 16.168C153.752 16.168 154.125 16.0667 154.445 15.864C154.776 15.6613 155.032 15.384 155.213 15.032C155.405 14.68 155.501 14.2747 155.501 13.816V11.992C155.501 11.3307 155.368 10.856 155.101 10.568C154.834 10.2693 154.397 10.12 153.789 10.12C153.416 10.12 153.042 10.168 152.669 10.264C152.296 10.36 151.901 10.5147 151.485 10.728C151.336 10.8027 151.208 10.8293 151.101 10.808C150.994 10.776 150.909 10.7173 150.845 10.632C150.781 10.5467 150.744 10.4507 150.733 10.344C150.722 10.2267 150.744 10.1147 150.797 10.008C150.861 9.90133 150.957 9.816 151.085 9.752C151.554 9.51733 152.018 9.34667 152.477 9.24C152.936 9.13333 153.373 9.08 153.789 9.08C154.461 9.08 155.016 9.192 155.453 9.416C155.89 9.62933 156.216 9.96 156.429 10.408C156.642 10.8453 156.749 11.4107 156.749 12.104V16.44C156.749 16.6533 156.696 16.8187 156.589 16.936C156.493 17.0533 156.349 17.112 156.157 17.112C155.954 17.112 155.8 17.0533 155.693 16.936C155.586 16.8187 155.533 16.6533 155.533 16.44V15.192H155.677C155.592 15.5973 155.426 15.944 155.181 16.232C154.946 16.52 154.653 16.744 154.301 16.904C153.949 17.064 153.554 17.144 153.117 17.144ZM162.274 17.144C161.666 17.144 161.154 17.0373 160.738 16.824C160.332 16.6 160.028 16.28 159.826 15.864C159.623 15.4373 159.522 14.92 159.522 14.312V10.232H158.45C158.268 10.232 158.13 10.1893 158.034 10.104C157.938 10.008 157.889 9.88 157.889 9.72C157.889 9.56 157.938 9.43733 158.034 9.352C158.13 9.26667 158.268 9.224 158.45 9.224H159.522V7.384C159.522 7.17067 159.58 7.01067 159.698 6.904C159.815 6.78667 159.975 6.728 160.178 6.728C160.38 6.728 160.535 6.78667 160.642 6.904C160.759 7.01067 160.818 7.17067 160.818 7.384V9.224H162.834C163.015 9.224 163.154 9.26667 163.25 9.352C163.346 9.43733 163.394 9.56 163.394 9.72C163.394 9.88 163.346 10.008 163.25 10.104C163.154 10.1893 163.015 10.232 162.834 10.232H160.818V14.184C160.818 14.792 160.946 15.256 161.202 15.576C161.458 15.8853 161.874 16.04 162.45 16.04C162.652 16.04 162.823 16.0187 162.962 15.976C163.111 15.9333 163.234 15.912 163.33 15.912C163.426 15.9013 163.506 15.9333 163.57 16.008C163.634 16.0827 163.666 16.2107 163.666 16.392C163.666 16.52 163.639 16.6373 163.586 16.744C163.543 16.8507 163.463 16.9253 163.346 16.968C163.218 17.0107 163.047 17.048 162.834 17.08C162.631 17.1227 162.444 17.144 162.274 17.144ZM167.371 17.144C166.891 17.144 166.406 17.0853 165.915 16.968C165.435 16.8507 164.987 16.648 164.571 16.36C164.465 16.2853 164.39 16.2 164.347 16.104C164.305 15.9973 164.289 15.896 164.299 15.8C164.321 15.6933 164.363 15.6027 164.427 15.528C164.502 15.4533 164.587 15.4107 164.683 15.4C164.79 15.3787 164.907 15.4 165.035 15.464C165.451 15.72 165.851 15.9013 166.235 16.008C166.63 16.104 167.019 16.152 167.403 16.152C168.011 16.152 168.47 16.04 168.779 15.816C169.089 15.592 169.243 15.288 169.243 14.904C169.243 14.6053 169.142 14.3707 168.939 14.2C168.737 14.0187 168.417 13.88 167.979 13.784L166.523 13.464C165.851 13.3253 165.35 13.0853 165.019 12.744C164.699 12.4027 164.539 11.96 164.539 11.416C164.539 10.936 164.662 10.5253 164.907 10.184C165.163 9.832 165.521 9.56 165.979 9.368C166.438 9.176 166.971 9.08 167.579 9.08C168.049 9.08 168.491 9.144 168.907 9.272C169.334 9.38933 169.718 9.58133 170.059 9.848C170.166 9.92267 170.235 10.0133 170.267 10.12C170.31 10.216 170.315 10.3173 170.283 10.424C170.262 10.52 170.214 10.6053 170.139 10.68C170.065 10.744 169.974 10.7813 169.867 10.792C169.761 10.8027 169.649 10.7707 169.531 10.696C169.211 10.4827 168.886 10.328 168.555 10.232C168.225 10.1253 167.899 10.072 167.579 10.072C166.982 10.072 166.529 10.1893 166.219 10.424C165.91 10.6587 165.755 10.968 165.755 11.352C165.755 11.6507 165.851 11.896 166.043 12.088C166.235 12.28 166.534 12.4187 166.939 12.504L168.395 12.808C169.089 12.9573 169.606 13.1973 169.947 13.528C170.299 13.848 170.475 14.2853 170.475 14.84C170.475 15.544 170.193 16.104 169.627 16.52C169.062 16.936 168.31 17.144 167.371 17.144ZM174.898 17.144C174.365 17.144 173.885 17.0427 173.458 16.84C173.042 16.6267 172.712 16.3387 172.466 15.976C172.221 15.6133 172.098 15.208 172.098 14.76C172.098 14.184 172.242 13.7307 172.53 13.4C172.829 13.0693 173.314 12.8347 173.986 12.696C174.669 12.5573 175.597 12.488 176.77 12.488H177.49V13.336H176.786C175.922 13.336 175.24 13.3787 174.738 13.464C174.248 13.5387 173.901 13.672 173.698 13.864C173.506 14.056 173.41 14.328 173.41 14.68C173.41 15.1173 173.56 15.4747 173.858 15.752C174.168 16.0293 174.584 16.168 175.106 16.168C175.533 16.168 175.906 16.0667 176.226 15.864C176.557 15.6613 176.813 15.384 176.994 15.032C177.186 14.68 177.282 14.2747 177.282 13.816V11.992C177.282 11.3307 177.149 10.856 176.882 10.568C176.616 10.2693 176.178 10.12 175.57 10.12C175.197 10.12 174.824 10.168 174.45 10.264C174.077 10.36 173.682 10.5147 173.266 10.728C173.117 10.8027 172.989 10.8293 172.882 10.808C172.776 10.776 172.69 10.7173 172.626 10.632C172.562 10.5467 172.525 10.4507 172.514 10.344C172.504 10.2267 172.525 10.1147 172.578 10.008C172.642 9.90133 172.738 9.816 172.866 9.752C173.336 9.51733 173.8 9.34667 174.258 9.24C174.717 9.13333 175.154 9.08 175.57 9.08C176.242 9.08 176.797 9.192 177.234 9.416C177.672 9.62933 177.997 9.96 178.21 10.408C178.424 10.8453 178.53 11.4107 178.53 12.104V16.44C178.53 16.6533 178.477 16.8187 178.37 16.936C178.274 17.0533 178.13 17.112 177.938 17.112C177.736 17.112 177.581 17.0533 177.474 16.936C177.368 16.8187 177.314 16.6533 177.314 16.44V15.192H177.458C177.373 15.5973 177.208 15.944 176.962 16.232C176.728 16.52 176.434 16.744 176.082 16.904C175.73 17.064 175.336 17.144 174.898 17.144ZM181.575 19.992C181.361 19.992 181.201 19.9333 181.095 19.816C180.988 19.7093 180.935 19.5493 180.935 19.336V9.768C180.935 9.55467 180.988 9.39467 181.095 9.288C181.201 9.17067 181.356 9.112 181.559 9.112C181.772 9.112 181.932 9.17067 182.039 9.288C182.156 9.39467 182.215 9.55467 182.215 9.768V11.288L182.039 11.064C182.209 10.456 182.545 9.976 183.047 9.624C183.559 9.26133 184.167 9.08 184.871 9.08C185.564 9.08 186.167 9.24533 186.679 9.576C187.201 9.896 187.601 10.36 187.879 10.968C188.167 11.5653 188.311 12.28 188.311 13.112C188.311 13.9333 188.167 14.648 187.879 15.256C187.601 15.8533 187.207 16.3173 186.695 16.648C186.183 16.9787 185.575 17.144 184.871 17.144C184.167 17.144 183.564 16.968 183.063 16.616C182.561 16.2533 182.22 15.7733 182.039 15.176H182.231V19.336C182.231 19.5493 182.172 19.7093 182.055 19.816C181.937 19.9333 181.777 19.992 181.575 19.992ZM184.599 16.104C185.089 16.104 185.511 15.9867 185.863 15.752C186.225 15.5173 186.503 15.176 186.695 14.728C186.897 14.28 186.999 13.7413 186.999 13.112C186.999 12.1413 186.78 11.4 186.343 10.888C185.916 10.376 185.335 10.12 184.599 10.12C184.119 10.12 183.697 10.2373 183.335 10.472C182.972 10.696 182.689 11.032 182.487 11.48C182.295 11.9173 182.199 12.4613 182.199 13.112C182.199 14.072 182.417 14.8133 182.855 15.336C183.292 15.848 183.873 16.104 184.599 16.104ZM190.903 19.992C190.69 19.992 190.53 19.9333 190.423 19.816C190.316 19.7093 190.263 19.5493 190.263 19.336V9.768C190.263 9.55467 190.316 9.39467 190.423 9.288C190.53 9.17067 190.684 9.112 190.887 9.112C191.1 9.112 191.26 9.17067 191.367 9.288C191.484 9.39467 191.543 9.55467 191.543 9.768V11.288L191.367 11.064C191.538 10.456 191.874 9.976 192.375 9.624C192.887 9.26133 193.495 9.08 194.199 9.08C194.892 9.08 195.495 9.24533 196.007 9.576C196.53 9.896 196.93 10.36 197.207 10.968C197.495 11.5653 197.639 12.28 197.639 13.112C197.639 13.9333 197.495 14.648 197.207 15.256C196.93 15.8533 196.535 16.3173 196.023 16.648C195.511 16.9787 194.903 17.144 194.199 17.144C193.495 17.144 192.892 16.968 192.391 16.616C191.89 16.2533 191.548 15.7733 191.367 15.176H191.559V19.336C191.559 19.5493 191.5 19.7093 191.383 19.816C191.266 19.9333 191.106 19.992 190.903 19.992ZM193.927 16.104C194.418 16.104 194.839 15.9867 195.191 15.752C195.554 15.5173 195.831 15.176 196.023 14.728C196.226 14.28 196.327 13.7413 196.327 13.112C196.327 12.1413 196.108 11.4 195.671 10.888C195.244 10.376 194.663 10.12 193.927 10.12C193.447 10.12 193.026 10.2373 192.663 10.472C192.3 10.696 192.018 11.032 191.815 11.48C191.623 11.9173 191.527 12.4613 191.527 13.112C191.527 14.072 191.746 14.8133 192.183 15.336C192.62 15.848 193.202 16.104 193.927 16.104Z" fill="#4F4F4F"/>
</svg>
