<svg width="32" height="32" viewBox="0 0 32 32" fill="none" xmlns="http://www.w3.org/2000/svg">
<path d="M16.7699 10.1971L18.8325 12.2506C18.8103 12.4287 18.7625 12.6739 18.6625 12.9811C18.3846 13.8347 17.6862 15.2152 15.9241 16.9773C14.17 18.7314 12.8051 19.3748 11.9752 19.6102C11.6555 19.7009 11.4056 19.7339 11.2317 19.7438L9.22541 17.7375C8.44437 16.9565 7.17804 16.9565 6.39699 17.7375L3.56856 20.5659C2.78751 21.347 2.78751 22.6133 3.56856 23.3944L6.36382 26.1896C6.98702 26.8128 7.94469 27.1377 8.90249 26.8313C10.5837 26.2935 14.5844 24.635 19.1249 20.0945C23.6654 15.5541 25.3239 11.5534 25.8617 9.87211C26.1681 8.91431 25.8432 7.95664 25.22 7.33343L22.4247 4.53818C21.6437 3.75713 20.3774 3.75713 19.5963 4.53818L16.7679 7.36661C15.9868 8.14766 15.9868 9.41399 16.7679 10.195L16.7699 10.1971Z" fill="#4F4F4F"/>
</svg>
