<svg width="18" height="18" viewBox="0 0 18 18" fill="none" xmlns="http://www.w3.org/2000/svg">
<rect width="18" height="18" rx="3.6" fill="#25D366"/>
<path d="M11.2501 9.98985C11.1151 9.94485 10.5301 9.62985 10.3951 9.58485C10.2601 9.53985 10.2151 9.53985 10.1251 9.62985C10.0013 9.80368 9.86597 9.96905 9.72009 10.1248C9.63009 10.2148 9.58509 10.2148 9.45009 10.1698C9.0739 10.0432 8.73414 9.82701 8.46009 9.53985C8.1811 9.30197 7.95173 9.01143 7.78509 8.68485C7.69509 8.54985 7.78509 8.50485 7.83009 8.41485C7.90079 8.34907 7.96144 8.27326 8.01009 8.18985C8.05509 8.09985 8.10009 8.05485 8.14509 7.96485C8.19009 7.87485 8.14509 7.82985 8.14509 7.73985C8.14509 7.64985 7.87509 7.06485 7.74009 6.83985C7.60509 6.61485 7.56009 6.61485 7.47009 6.61485H7.24509C7.12718 6.62011 7.01522 6.66809 6.93009 6.74985C6.78216 6.87748 6.66488 7.03681 6.58697 7.21599C6.50906 7.39517 6.47253 7.58961 6.48009 7.78485C6.52133 8.24488 6.69306 8.68358 6.97509 9.04935C7.48627 9.85921 8.22296 10.5021 9.09459 10.8988C9.40959 11.0338 9.63459 11.0788 9.81459 11.1688C10.0617 11.2481 10.3249 11.2636 10.5796 11.2139C10.923 11.1222 11.2247 10.9157 11.4346 10.6288C11.4915 10.4389 11.5218 10.2421 11.5246 10.0438C11.4327 10.0446 11.3413 10.0294 11.2546 9.99885L11.2501 9.98985ZM9.00009 13.0498C8.25254 13.0588 7.51771 12.856 6.88059 12.4649L6.74559 12.3748L5.16609 12.7799L5.57559 11.2498L5.48559 11.1148C5.07424 10.4513 4.85607 9.6861 4.85559 8.90535C4.8547 8.08437 5.0974 7.28159 5.55295 6.5986C6.00851 5.91561 6.65645 5.38312 7.41476 5.06854C8.17307 4.75395 9.00767 4.67141 9.81292 4.83135C10.6182 4.9913 11.3579 5.38655 11.9384 5.96707C12.5189 6.54758 12.9141 7.28728 13.0741 8.09253C13.234 8.89777 13.1515 9.73237 12.8369 10.4907C12.5223 11.249 11.9898 11.8969 11.3068 12.3525C10.6239 12.808 9.82107 13.0507 9.00009 13.0498ZM12.5146 5.43585C11.5697 4.52506 10.3124 4.0099 9.00009 3.99585C7.68727 3.99585 6.42822 4.51737 5.49992 5.44567C4.57161 6.37398 4.05009 7.63303 4.05009 8.94585C4.04987 9.81777 4.28293 10.6739 4.72509 11.4253L3.99609 14.0038L6.65559 13.3288C7.38793 13.7277 8.21135 13.9293 9.04509 13.9138C9.69514 13.9138 10.3388 13.7858 10.9394 13.5371C11.5399 13.2883 12.0856 12.9237 12.5453 12.464C13.0049 12.0044 13.3695 11.4587 13.6183 10.8581C13.8671 10.2576 13.9951 9.61389 13.9951 8.96385C13.9632 7.64564 13.4306 6.38902 12.5056 5.44935" fill="#FBFBFD"/>
</svg>
