<svg width="544" height="22" viewBox="0 0 544 22" fill="none" xmlns="http://www.w3.org/2000/svg">
<path d="M4.048 16.112C3.83467 16.112 3.66933 16.0533 3.552 15.936C3.44533 15.808 3.392 15.6373 3.392 15.424V5.408C3.392 5.184 3.45067 5.01333 3.568 4.896C3.68533 4.77867 3.856 4.72 4.08 4.72H9.952C10.1547 4.72 10.304 4.768 10.4 4.864C10.5067 4.96 10.56 5.104 10.56 5.296C10.56 5.46667 10.5067 5.60533 10.4 5.712C10.304 5.808 10.1547 5.856 9.952 5.856H4.704V15.424C4.704 15.6373 4.65067 15.808 4.544 15.936C4.43733 16.0533 4.272 16.112 4.048 16.112ZM15.623 16.112C15.4203 16.112 15.2603 16.0533 15.143 15.936C15.0363 15.8187 14.983 15.6533 14.983 15.44V9.264H11.847V10.256C11.847 11.088 11.8043 11.824 11.719 12.464C11.6443 13.0933 11.5217 13.6373 11.351 14.096C11.1803 14.5547 10.951 14.9387 10.663 15.248C10.3857 15.5573 10.039 15.8187 9.623 16.032C9.48433 16.096 9.351 16.112 9.223 16.08C9.095 16.0587 8.98833 16.0107 8.903 15.936C8.82833 15.8507 8.775 15.7493 8.743 15.632C8.72167 15.5147 8.73767 15.3973 8.791 15.28C8.84433 15.1627 8.94033 15.0667 9.079 14.992C9.38833 14.8213 9.639 14.608 9.831 14.352C10.0337 14.096 10.1937 13.776 10.311 13.392C10.4283 13.008 10.5083 12.56 10.551 12.048C10.6043 11.5253 10.631 10.912 10.631 10.208V8.96C10.631 8.71467 10.695 8.53333 10.823 8.416C10.951 8.288 11.1323 8.224 11.367 8.224H15.543C15.7777 8.224 15.959 8.288 16.087 8.416C16.215 8.53333 16.279 8.71467 16.279 8.96V15.44C16.279 15.6533 16.2203 15.8187 16.103 15.936C15.9963 16.0533 15.8363 16.112 15.623 16.112ZM21.3065 16.144C20.7732 16.144 20.2932 16.0427 19.8665 15.84C19.4505 15.6267 19.1198 15.3387 18.8745 14.976C18.6292 14.6133 18.5065 14.208 18.5065 13.76C18.5065 13.184 18.6505 12.7307 18.9385 12.4C19.2372 12.0693 19.7225 11.8347 20.3945 11.696C21.0772 11.5573 22.0052 11.488 23.1785 11.488H23.8985V12.336H23.1945C22.3305 12.336 21.6478 12.3787 21.1465 12.464C20.6558 12.5387 20.3092 12.672 20.1065 12.864C19.9145 13.056 19.8185 13.328 19.8185 13.68C19.8185 14.1173 19.9678 14.4747 20.2665 14.752C20.5758 15.0293 20.9918 15.168 21.5145 15.168C21.9412 15.168 22.3145 15.0667 22.6345 14.864C22.9652 14.6613 23.2212 14.384 23.4025 14.032C23.5945 13.68 23.6905 13.2747 23.6905 12.816V10.992C23.6905 10.3307 23.5572 9.856 23.2905 9.568C23.0238 9.26933 22.5865 9.12 21.9785 9.12C21.6052 9.12 21.2318 9.168 20.8585 9.264C20.4852 9.36 20.0905 9.51467 19.6745 9.728C19.5252 9.80267 19.3972 9.82933 19.2905 9.808C19.1838 9.776 19.0985 9.71733 19.0345 9.632C18.9705 9.54667 18.9332 9.45067 18.9225 9.344C18.9118 9.22667 18.9332 9.11467 18.9865 9.008C19.0505 8.90133 19.1465 8.816 19.2745 8.752C19.7438 8.51733 20.2078 8.34667 20.6665 8.24C21.1252 8.13333 21.5625 8.08 21.9785 8.08C22.6505 8.08 23.2052 8.192 23.6425 8.416C24.0798 8.62933 24.4052 8.96 24.6185 9.408C24.8318 9.84533 24.9385 10.4107 24.9385 11.104V15.44C24.9385 15.6533 24.8852 15.8187 24.7785 15.936C24.6825 16.0533 24.5385 16.112 24.3465 16.112C24.1438 16.112 23.9892 16.0533 23.8825 15.936C23.7758 15.8187 23.7225 15.6533 23.7225 15.44V14.192H23.8665C23.7812 14.5973 23.6158 14.944 23.3705 15.232C23.1358 15.52 22.8425 15.744 22.4905 15.904C22.1385 16.064 21.7438 16.144 21.3065 16.144ZM28.1395 16C27.9262 16 27.7608 15.9413 27.6435 15.824C27.5262 15.7067 27.4675 15.5413 27.4675 15.328V8.896C27.4675 8.68267 27.5262 8.51733 27.6435 8.4C27.7608 8.28267 27.9262 8.224 28.1395 8.224H31.2595C31.8782 8.224 32.3848 8.304 32.7795 8.464C33.1742 8.61333 33.4675 8.84267 33.6595 9.152C33.8515 9.45067 33.9475 9.824 33.9475 10.272C33.9475 10.7627 33.7715 11.1787 33.4195 11.52C33.0782 11.8613 32.6302 12.064 32.0755 12.128V11.92C32.7368 11.9413 33.2542 12.128 33.6275 12.48C34.0115 12.832 34.2035 13.2907 34.2035 13.856C34.2035 14.5173 33.9582 15.04 33.4675 15.424C32.9768 15.808 32.2835 16 31.3875 16H28.1395ZM28.6995 15.12H31.3395C31.8622 15.12 32.2622 15.008 32.5395 14.784C32.8275 14.5493 32.9715 14.2187 32.9715 13.792C32.9715 13.3653 32.8275 13.04 32.5395 12.816C32.2622 12.592 31.8622 12.48 31.3395 12.48H28.6995V15.12ZM28.6995 11.6H31.1955C31.6755 11.6 32.0488 11.488 32.3155 11.264C32.5928 11.04 32.7315 10.7307 32.7315 10.336C32.7315 9.94133 32.5928 9.63733 32.3155 9.424C32.0488 9.21067 31.6755 9.104 31.1955 9.104H28.6995V11.6ZM36.8735 16.112C36.6602 16.112 36.4948 16.0533 36.3775 15.936C36.2708 15.8187 36.2175 15.6533 36.2175 15.44V8.768C36.2175 8.544 36.2708 8.37867 36.3775 8.272C36.4948 8.16533 36.6602 8.112 36.8735 8.112C37.0762 8.112 37.2308 8.16533 37.3375 8.272C37.4548 8.37867 37.5135 8.544 37.5135 8.768V11.456H41.7535V8.768C41.7535 8.544 41.8068 8.37867 41.9135 8.272C42.0308 8.16533 42.1908 8.112 42.3935 8.112C42.5962 8.112 42.7562 8.16533 42.8735 8.272C42.9908 8.37867 43.0495 8.544 43.0495 8.768V15.44C43.0495 15.6533 42.9908 15.8187 42.8735 15.936C42.7562 16.0533 42.5962 16.112 42.3935 16.112C42.1908 16.112 42.0308 16.0533 41.9135 15.936C41.8068 15.8187 41.7535 15.6533 41.7535 15.44V12.512H37.5135V15.44C37.5135 15.6533 37.4602 15.8187 37.3535 15.936C37.2468 16.0533 37.0868 16.112 36.8735 16.112ZM48.0721 16.144C47.5388 16.144 47.0588 16.0427 46.6321 15.84C46.2161 15.6267 45.8855 15.3387 45.6401 14.976C45.3948 14.6133 45.2721 14.208 45.2721 13.76C45.2721 13.184 45.4161 12.7307 45.7041 12.4C46.0028 12.0693 46.4881 11.8347 47.1601 11.696C47.8428 11.5573 48.7708 11.488 49.9441 11.488H50.6641V12.336H49.9601C49.0961 12.336 48.4135 12.3787 47.9121 12.464C47.4215 12.5387 47.0748 12.672 46.8721 12.864C46.6801 13.056 46.5841 13.328 46.5841 13.68C46.5841 14.1173 46.7335 14.4747 47.0321 14.752C47.3415 15.0293 47.7575 15.168 48.2801 15.168C48.7068 15.168 49.0801 15.0667 49.4001 14.864C49.7308 14.6613 49.9868 14.384 50.1681 14.032C50.3601 13.68 50.4561 13.2747 50.4561 12.816V10.992C50.4561 10.3307 50.3228 9.856 50.0561 9.568C49.7895 9.26933 49.3521 9.12 48.7441 9.12C48.3708 9.12 47.9975 9.168 47.6241 9.264C47.2508 9.36 46.8561 9.51467 46.4401 9.728C46.2908 9.80267 46.1628 9.82933 46.0561 9.808C45.9495 9.776 45.8641 9.71733 45.8001 9.632C45.7361 9.54667 45.6988 9.45067 45.6881 9.344C45.6775 9.22667 45.6988 9.11467 45.7521 9.008C45.8161 8.90133 45.9121 8.816 46.0401 8.752C46.5095 8.51733 46.9735 8.34667 47.4321 8.24C47.8908 8.13333 48.3281 8.08 48.7441 8.08C49.4161 8.08 49.9708 8.192 50.4081 8.416C50.8455 8.62933 51.1708 8.96 51.3841 9.408C51.5975 9.84533 51.7041 10.4107 51.7041 11.104V15.44C51.7041 15.6533 51.6508 15.8187 51.5441 15.936C51.4481 16.0533 51.3041 16.112 51.1121 16.112C50.9095 16.112 50.7548 16.0533 50.6481 15.936C50.5415 15.8187 50.4881 15.6533 50.4881 15.44V14.192H50.6321C50.5468 14.5973 50.3815 14.944 50.1361 15.232C49.9015 15.52 49.6081 15.744 49.2561 15.904C48.9041 16.064 48.5095 16.144 48.0721 16.144ZM59.6891 16.112C59.4865 16.112 59.3318 16.0587 59.2251 15.952C59.1185 15.8347 59.0651 15.68 59.0651 15.488V13.04H57.9291C57.5131 13.04 57.1558 13.1467 56.8571 13.36C56.5585 13.5733 56.3185 13.8347 56.1371 14.144L55.2251 15.744C55.1291 15.904 55.0171 16.0107 54.8891 16.064C54.7611 16.1173 54.6331 16.128 54.5051 16.096C54.3771 16.064 54.2651 16 54.1691 15.904C54.0731 15.808 54.0145 15.696 53.9931 15.568C53.9718 15.4293 54.0038 15.2853 54.0891 15.136L54.8571 13.84C55.0385 13.52 55.2785 13.2533 55.5771 13.04C55.8758 12.8267 56.1798 12.72 56.4891 12.72H56.6971V12.864C55.8225 12.864 55.1451 12.6613 54.6651 12.256C54.1851 11.8507 53.9451 11.2853 53.9451 10.56C53.9451 10.08 54.0465 9.66933 54.2491 9.328C54.4625 8.976 54.7825 8.704 55.2091 8.512C55.6358 8.32 56.1638 8.224 56.7931 8.224H59.6091C59.8331 8.224 60.0038 8.28267 60.1211 8.4C60.2385 8.51733 60.2971 8.68267 60.2971 8.896V15.488C60.2971 15.68 60.2385 15.8347 60.1211 15.952C60.0145 16.0587 59.8705 16.112 59.6891 16.112ZM57.0331 12.096H59.0651V9.136H57.0331C56.4038 9.136 55.9398 9.26933 55.6411 9.536C55.3425 9.792 55.1931 10.1493 55.1931 10.608C55.1931 11.0773 55.3425 11.4453 55.6411 11.712C55.9398 11.968 56.4038 12.096 57.0331 12.096Z" fill="#353535"/>
<path d="M105.048 16.112C104.835 16.112 104.669 16.0533 104.552 15.936C104.445 15.808 104.392 15.6373 104.392 15.424V5.296C104.392 5.072 104.445 4.90133 104.552 4.784C104.669 4.66667 104.835 4.608 105.048 4.608C105.261 4.608 105.421 4.66667 105.528 4.784C105.645 4.90133 105.704 5.072 105.704 5.296V9.712H112.472V5.296C112.472 5.072 112.525 4.90133 112.632 4.784C112.749 4.66667 112.915 4.608 113.128 4.608C113.341 4.608 113.501 4.66667 113.608 4.784C113.725 4.90133 113.784 5.072 113.784 5.296V15.424C113.784 15.6373 113.725 15.808 113.608 15.936C113.501 16.0533 113.341 16.112 113.128 16.112C112.915 16.112 112.749 16.0533 112.632 15.936C112.525 15.808 112.472 15.6373 112.472 15.424V10.848H105.704V15.424C105.704 15.6373 105.651 15.808 105.544 15.936C105.437 16.0533 105.272 16.112 105.048 16.112ZM118.916 16.144C118.383 16.144 117.903 16.0427 117.476 15.84C117.06 15.6267 116.729 15.3387 116.484 14.976C116.239 14.6133 116.116 14.208 116.116 13.76C116.116 13.184 116.26 12.7307 116.548 12.4C116.847 12.0693 117.332 11.8347 118.004 11.696C118.687 11.5573 119.615 11.488 120.788 11.488H121.508V12.336H120.804C119.94 12.336 119.257 12.3787 118.756 12.464C118.265 12.5387 117.919 12.672 117.716 12.864C117.524 13.056 117.428 13.328 117.428 13.68C117.428 14.1173 117.577 14.4747 117.876 14.752C118.185 15.0293 118.601 15.168 119.124 15.168C119.551 15.168 119.924 15.0667 120.244 14.864C120.575 14.6613 120.831 14.384 121.012 14.032C121.204 13.68 121.3 13.2747 121.3 12.816V10.992C121.3 10.3307 121.167 9.856 120.9 9.568C120.633 9.26933 120.196 9.12 119.588 9.12C119.215 9.12 118.841 9.168 118.468 9.264C118.095 9.36 117.7 9.51467 117.284 9.728C117.135 9.80267 117.007 9.82933 116.9 9.808C116.793 9.776 116.708 9.71733 116.644 9.632C116.58 9.54667 116.543 9.45067 116.532 9.344C116.521 9.22667 116.543 9.11467 116.596 9.008C116.66 8.90133 116.756 8.816 116.884 8.752C117.353 8.51733 117.817 8.34667 118.276 8.24C118.735 8.13333 119.172 8.08 119.588 8.08C120.26 8.08 120.815 8.192 121.252 8.416C121.689 8.62933 122.015 8.96 122.228 9.408C122.441 9.84533 122.548 10.4107 122.548 11.104V15.44C122.548 15.6533 122.495 15.8187 122.388 15.936C122.292 16.0533 122.148 16.112 121.956 16.112C121.753 16.112 121.599 16.0533 121.492 15.936C121.385 15.8187 121.332 15.6533 121.332 15.44V14.192H121.476C121.391 14.5973 121.225 14.944 120.98 15.232C120.745 15.52 120.452 15.744 120.1 15.904C119.748 16.064 119.353 16.144 118.916 16.144ZM125.733 16.112C125.52 16.112 125.354 16.0533 125.237 15.936C125.13 15.8187 125.077 15.6533 125.077 15.44V8.96C125.077 8.71467 125.141 8.53333 125.269 8.416C125.397 8.288 125.578 8.224 125.813 8.224H131.125C131.36 8.224 131.541 8.288 131.669 8.416C131.797 8.53333 131.861 8.71467 131.861 8.96V15.44C131.861 15.6533 131.802 15.8187 131.685 15.936C131.568 16.0533 131.408 16.112 131.205 16.112C131.002 16.112 130.842 16.0533 130.725 15.936C130.618 15.8187 130.565 15.6533 130.565 15.44V9.264H126.373V15.44C126.373 15.6533 126.32 15.8187 126.213 15.936C126.106 16.0533 125.946 16.112 125.733 16.112ZM135.077 18.992C134.863 18.992 134.703 18.9333 134.597 18.816C134.49 18.7093 134.437 18.5493 134.437 18.336V8.768C134.437 8.55467 134.49 8.39467 134.597 8.288C134.703 8.17067 134.858 8.112 135.061 8.112C135.274 8.112 135.434 8.17067 135.541 8.288C135.658 8.39467 135.717 8.55467 135.717 8.768V10.288L135.541 10.064C135.711 9.456 136.047 8.976 136.549 8.624C137.061 8.26133 137.669 8.08 138.373 8.08C139.066 8.08 139.669 8.24533 140.181 8.576C140.703 8.896 141.103 9.36 141.381 9.968C141.669 10.5653 141.813 11.28 141.813 12.112C141.813 12.9333 141.669 13.648 141.381 14.256C141.103 14.8533 140.709 15.3173 140.197 15.648C139.685 15.9787 139.077 16.144 138.373 16.144C137.669 16.144 137.066 15.968 136.565 15.616C136.063 15.2533 135.722 14.7733 135.541 14.176H135.733V18.336C135.733 18.5493 135.674 18.7093 135.557 18.816C135.439 18.9333 135.279 18.992 135.077 18.992ZM138.101 15.104C138.591 15.104 139.013 14.9867 139.365 14.752C139.727 14.5173 140.005 14.176 140.197 13.728C140.399 13.28 140.501 12.7413 140.501 12.112C140.501 11.1413 140.282 10.4 139.845 9.888C139.418 9.376 138.837 9.12 138.101 9.12C137.621 9.12 137.199 9.23733 136.837 9.472C136.474 9.696 136.191 10.032 135.989 10.48C135.797 10.9173 135.701 11.4613 135.701 12.112C135.701 13.072 135.919 13.8133 136.357 14.336C136.794 14.848 137.375 15.104 138.101 15.104ZM146.369 16.144C145.836 16.144 145.356 16.0427 144.929 15.84C144.513 15.6267 144.182 15.3387 143.937 14.976C143.692 14.6133 143.569 14.208 143.569 13.76C143.569 13.184 143.713 12.7307 144.001 12.4C144.3 12.0693 144.785 11.8347 145.457 11.696C146.14 11.5573 147.068 11.488 148.241 11.488H148.961V12.336H148.257C147.393 12.336 146.71 12.3787 146.209 12.464C145.718 12.5387 145.372 12.672 145.169 12.864C144.977 13.056 144.881 13.328 144.881 13.68C144.881 14.1173 145.03 14.4747 145.329 14.752C145.638 15.0293 146.054 15.168 146.577 15.168C147.004 15.168 147.377 15.0667 147.697 14.864C148.028 14.6613 148.284 14.384 148.465 14.032C148.657 13.68 148.753 13.2747 148.753 12.816V10.992C148.753 10.3307 148.62 9.856 148.353 9.568C148.086 9.26933 147.649 9.12 147.041 9.12C146.668 9.12 146.294 9.168 145.921 9.264C145.548 9.36 145.153 9.51467 144.737 9.728C144.588 9.80267 144.46 9.82933 144.353 9.808C144.246 9.776 144.161 9.71733 144.097 9.632C144.033 9.54667 143.996 9.45067 143.985 9.344C143.974 9.22667 143.996 9.11467 144.049 9.008C144.113 8.90133 144.209 8.816 144.337 8.752C144.806 8.51733 145.27 8.34667 145.729 8.24C146.188 8.13333 146.625 8.08 147.041 8.08C147.713 8.08 148.268 8.192 148.705 8.416C149.142 8.62933 149.468 8.96 149.681 9.408C149.894 9.84533 150.001 10.4107 150.001 11.104V15.44C150.001 15.6533 149.948 15.8187 149.841 15.936C149.745 16.0533 149.601 16.112 149.409 16.112C149.206 16.112 149.052 16.0533 148.945 15.936C148.838 15.8187 148.785 15.6533 148.785 15.44V14.192H148.929C148.844 14.5973 148.678 14.944 148.433 15.232C148.198 15.52 147.905 15.744 147.553 15.904C147.201 16.064 146.806 16.144 146.369 16.144ZM153.202 16C152.989 16 152.823 15.9413 152.706 15.824C152.589 15.7067 152.53 15.5413 152.53 15.328V8.896C152.53 8.68267 152.589 8.51733 152.706 8.4C152.823 8.28267 152.989 8.224 153.202 8.224H156.322C156.941 8.224 157.447 8.304 157.842 8.464C158.237 8.61333 158.53 8.84267 158.722 9.152C158.914 9.45067 159.01 9.824 159.01 10.272C159.01 10.7627 158.834 11.1787 158.482 11.52C158.141 11.8613 157.693 12.064 157.138 12.128V11.92C157.799 11.9413 158.317 12.128 158.69 12.48C159.074 12.832 159.266 13.2907 159.266 13.856C159.266 14.5173 159.021 15.04 158.53 15.424C158.039 15.808 157.346 16 156.45 16H153.202ZM153.762 15.12H156.402C156.925 15.12 157.325 15.008 157.602 14.784C157.89 14.5493 158.034 14.2187 158.034 13.792C158.034 13.3653 157.89 13.04 157.602 12.816C157.325 12.592 156.925 12.48 156.402 12.48H153.762V15.12ZM153.762 11.6H156.258C156.738 11.6 157.111 11.488 157.378 11.264C157.655 11.04 157.794 10.7307 157.794 10.336C157.794 9.94133 157.655 9.63733 157.378 9.424C157.111 9.21067 156.738 9.104 156.258 9.104H153.762V11.6ZM167.248 16.112C167.045 16.112 166.885 16.0533 166.768 15.936C166.661 15.8187 166.608 15.6533 166.608 15.44V9.264H163.472V10.256C163.472 11.088 163.429 11.824 163.344 12.464C163.269 13.0933 163.147 13.6373 162.976 14.096C162.805 14.5547 162.576 14.9387 162.288 15.248C162.011 15.5573 161.664 15.8187 161.248 16.032C161.109 16.096 160.976 16.112 160.848 16.08C160.72 16.0587 160.613 16.0107 160.528 15.936C160.453 15.8507 160.4 15.7493 160.368 15.632C160.347 15.5147 160.363 15.3973 160.416 15.28C160.469 15.1627 160.565 15.0667 160.704 14.992C161.013 14.8213 161.264 14.608 161.456 14.352C161.659 14.096 161.819 13.776 161.936 13.392C162.053 13.008 162.133 12.56 162.176 12.048C162.229 11.5253 162.256 10.912 162.256 10.208V8.96C162.256 8.71467 162.32 8.53333 162.448 8.416C162.576 8.288 162.757 8.224 162.992 8.224H167.168C167.403 8.224 167.584 8.288 167.712 8.416C167.84 8.53333 167.904 8.71467 167.904 8.96V15.44C167.904 15.6533 167.845 15.8187 167.728 15.936C167.621 16.0533 167.461 16.112 167.248 16.112ZM173.988 16.144C173.166 16.144 172.457 15.984 171.86 15.664C171.273 15.3333 170.814 14.8693 170.484 14.272C170.164 13.6747 170.004 12.96 170.004 12.128C170.004 11.3173 170.164 10.6133 170.484 10.016C170.804 9.408 171.241 8.93333 171.796 8.592C172.361 8.25067 173.012 8.08 173.748 8.08C174.27 8.08 174.74 8.17067 175.156 8.352C175.572 8.52267 175.924 8.77333 176.212 9.104C176.51 9.43467 176.734 9.83467 176.884 10.304C177.044 10.7733 177.124 11.3013 177.124 11.888C177.124 12.0587 177.076 12.1867 176.98 12.272C176.884 12.3467 176.745 12.384 176.564 12.384H170.996V11.536H176.26L176.004 11.744C176.004 11.168 175.918 10.6827 175.748 10.288C175.577 9.88267 175.326 9.57333 174.996 9.36C174.676 9.14667 174.27 9.04 173.78 9.04C173.236 9.04 172.772 9.168 172.388 9.424C172.014 9.66933 171.732 10.016 171.539 10.464C171.348 10.9013 171.252 11.4133 171.252 12V12.096C171.252 13.0773 171.486 13.824 171.956 14.336C172.436 14.848 173.113 15.104 173.988 15.104C174.35 15.104 174.708 15.056 175.06 14.96C175.422 14.864 175.774 14.704 176.116 14.48C176.265 14.384 176.398 14.3413 176.516 14.352C176.644 14.352 176.745 14.3893 176.82 14.464C176.894 14.528 176.942 14.6133 176.964 14.72C176.996 14.816 176.985 14.9227 176.932 15.04C176.889 15.1573 176.798 15.2587 176.66 15.344C176.308 15.6 175.892 15.7973 175.412 15.936C174.932 16.0747 174.457 16.144 173.988 16.144ZM179.795 16.112C179.582 16.112 179.417 16.0533 179.299 15.936C179.193 15.8187 179.139 15.6533 179.139 15.44V8.768C179.139 8.544 179.193 8.37867 179.299 8.272C179.417 8.16533 179.582 8.112 179.795 8.112C179.998 8.112 180.153 8.16533 180.259 8.272C180.377 8.37867 180.435 8.544 180.435 8.768V11.456H184.675V8.768C184.675 8.544 184.729 8.37867 184.835 8.272C184.953 8.16533 185.113 8.112 185.315 8.112C185.518 8.112 185.678 8.16533 185.795 8.272C185.913 8.37867 185.971 8.544 185.971 8.768V15.44C185.971 15.6533 185.913 15.8187 185.795 15.936C185.678 16.0533 185.518 16.112 185.315 16.112C185.113 16.112 184.953 16.0533 184.835 15.936C184.729 15.8187 184.675 15.6533 184.675 15.44V12.512H180.435V15.44C180.435 15.6533 180.382 15.8187 180.275 15.936C180.169 16.0533 180.009 16.112 179.795 16.112ZM189.122 16.112C189.005 16.112 188.898 16.0853 188.802 16.032C188.717 15.9893 188.647 15.9147 188.594 15.808C188.551 15.7013 188.53 15.568 188.53 15.408V8.752C188.53 8.53867 188.583 8.37867 188.69 8.272C188.797 8.16533 188.941 8.112 189.122 8.112C189.314 8.112 189.458 8.16533 189.554 8.272C189.661 8.37867 189.714 8.53867 189.714 8.752V14.768H189.314L193.97 8.528C194.055 8.41067 194.157 8.31467 194.274 8.24C194.391 8.15467 194.541 8.112 194.722 8.112C194.85 8.112 194.957 8.13333 195.042 8.176C195.127 8.21867 195.191 8.29333 195.234 8.4C195.287 8.496 195.314 8.62933 195.314 8.8V15.472C195.314 15.6747 195.261 15.8347 195.154 15.952C195.058 16.0587 194.914 16.112 194.722 16.112C194.53 16.112 194.381 16.0587 194.274 15.952C194.178 15.8347 194.13 15.6747 194.13 15.472V9.44H194.53L189.858 15.696C189.783 15.8027 189.687 15.8987 189.57 15.984C189.463 16.0693 189.314 16.112 189.122 16.112ZM203.33 16.112C203.127 16.112 202.972 16.0587 202.866 15.952C202.759 15.8347 202.706 15.68 202.706 15.488V13.04H201.57C201.154 13.04 200.796 13.1467 200.498 13.36C200.199 13.5733 199.959 13.8347 199.778 14.144L198.866 15.744C198.77 15.904 198.658 16.0107 198.53 16.064C198.402 16.1173 198.274 16.128 198.146 16.096C198.018 16.064 197.906 16 197.81 15.904C197.714 15.808 197.655 15.696 197.634 15.568C197.612 15.4293 197.644 15.2853 197.73 15.136L198.498 13.84C198.679 13.52 198.919 13.2533 199.218 13.04C199.516 12.8267 199.82 12.72 200.13 12.72H200.338V12.864C199.463 12.864 198.786 12.6613 198.306 12.256C197.826 11.8507 197.586 11.2853 197.586 10.56C197.586 10.08 197.687 9.66933 197.89 9.328C198.103 8.976 198.423 8.704 198.85 8.512C199.276 8.32 199.804 8.224 200.434 8.224H203.25C203.474 8.224 203.644 8.28267 203.762 8.4C203.879 8.51733 203.938 8.68267 203.938 8.896V15.488C203.938 15.68 203.879 15.8347 203.762 15.952C203.655 16.0587 203.511 16.112 203.33 16.112ZM200.674 12.096H202.706V9.136H200.674C200.044 9.136 199.58 9.26933 199.282 9.536C198.983 9.792 198.834 10.1493 198.834 10.608C198.834 11.0773 198.983 11.4453 199.282 11.712C199.58 11.968 200.044 12.096 200.674 12.096Z" fill="#353535"/>
<path d="M248.048 16.112C247.835 16.112 247.669 16.0533 247.552 15.936C247.445 15.808 247.392 15.6373 247.392 15.424V5.28C247.392 5.056 247.445 4.89067 247.552 4.784C247.669 4.66667 247.835 4.608 248.048 4.608C248.261 4.608 248.421 4.66667 248.528 4.784C248.645 4.89067 248.704 5.056 248.704 5.28V9.744H250.912L250.528 10L253.856 4.96C253.952 4.81067 254.064 4.71467 254.192 4.672C254.32 4.61867 254.448 4.608 254.576 4.64C254.704 4.66133 254.811 4.72 254.896 4.816C254.981 4.90133 255.029 5.01333 255.04 5.152C255.061 5.28 255.024 5.41867 254.928 5.568L251.808 10.224L251.312 9.792C251.963 9.86667 252.517 10.096 252.976 10.48C253.435 10.864 253.835 11.3973 254.176 12.08L255.696 15.184C255.781 15.3547 255.808 15.5093 255.776 15.648C255.744 15.776 255.675 15.8773 255.568 15.952C255.461 16.0267 255.339 16.0693 255.2 16.08C255.072 16.1013 254.944 16.08 254.816 16.016C254.688 15.952 254.587 15.84 254.512 15.68L253.088 12.688C252.768 12.0373 252.405 11.5733 252 11.296C251.605 11.0187 251.115 10.88 250.528 10.88H248.704V15.424C248.704 15.6373 248.651 15.808 248.544 15.936C248.437 16.0533 248.272 16.112 248.048 16.112ZM260.684 16.144C259.927 16.144 259.271 15.9787 258.716 15.648C258.162 15.3173 257.73 14.8533 257.42 14.256C257.122 13.648 256.972 12.9333 256.972 12.112C256.972 11.4933 257.058 10.9387 257.228 10.448C257.399 9.94667 257.65 9.52 257.98 9.168C258.311 8.816 258.7 8.54933 259.148 8.368C259.607 8.176 260.119 8.08 260.684 8.08C261.442 8.08 262.098 8.24533 262.652 8.576C263.207 8.90667 263.634 9.376 263.932 9.984C264.242 10.5813 264.396 11.2907 264.396 12.112C264.396 12.7307 264.311 13.2853 264.14 13.776C263.97 14.2667 263.719 14.6933 263.388 15.056C263.058 15.408 262.663 15.68 262.204 15.872C261.756 16.0533 261.25 16.144 260.684 16.144ZM260.684 15.104C261.164 15.104 261.586 14.9867 261.948 14.752C262.311 14.5173 262.588 14.176 262.78 13.728C262.983 13.28 263.084 12.7413 263.084 12.112C263.084 11.1413 262.866 10.4 262.428 9.888C262.002 9.376 261.42 9.12 260.684 9.12C260.194 9.12 259.767 9.23733 259.404 9.472C259.052 9.696 258.775 10.032 258.572 10.48C258.38 10.9173 258.284 11.4613 258.284 12.112C258.284 13.072 258.503 13.8133 258.94 14.336C259.378 14.848 259.959 15.104 260.684 15.104ZM269.811 16.144C269.032 16.144 268.36 15.9733 267.795 15.632C267.229 15.2907 266.792 14.816 266.483 14.208C266.184 13.5893 266.035 12.8747 266.035 12.064C266.035 11.4453 266.12 10.8907 266.291 10.4C266.461 9.90933 266.712 9.49333 267.043 9.152C267.373 8.8 267.768 8.53333 268.227 8.352C268.696 8.17067 269.224 8.08 269.811 8.08C270.195 8.08 270.595 8.13867 271.011 8.256C271.427 8.37333 271.805 8.576 272.147 8.864C272.253 8.93867 272.323 9.02933 272.355 9.136C272.387 9.24267 272.387 9.34933 272.355 9.456C272.323 9.552 272.269 9.63733 272.195 9.712C272.12 9.776 272.024 9.81333 271.907 9.824C271.8 9.83467 271.688 9.79733 271.571 9.712C271.293 9.49867 271.011 9.34933 270.723 9.264C270.435 9.17867 270.157 9.136 269.891 9.136C269.475 9.136 269.112 9.20533 268.803 9.344C268.493 9.472 268.232 9.65867 268.019 9.904C267.805 10.1493 267.64 10.4533 267.523 10.816C267.416 11.1787 267.363 11.6 267.363 12.08C267.363 13.008 267.581 13.744 268.019 14.288C268.456 14.8213 269.08 15.088 269.891 15.088C270.157 15.088 270.429 15.0453 270.707 14.96C270.995 14.8747 271.283 14.7253 271.571 14.512C271.688 14.4267 271.8 14.3893 271.907 14.4C272.013 14.4107 272.104 14.4533 272.179 14.528C272.253 14.592 272.301 14.6773 272.323 14.784C272.355 14.8907 272.355 14.9973 272.323 15.104C272.291 15.2 272.221 15.2853 272.115 15.36C271.773 15.6373 271.4 15.84 270.995 15.968C270.589 16.0853 270.195 16.144 269.811 16.144ZM274.637 16.112C274.456 16.112 274.312 16.0587 274.205 15.952C274.109 15.8347 274.061 15.68 274.061 15.488V8.8C274.061 8.65067 274.083 8.528 274.125 8.432C274.168 8.32533 274.232 8.24533 274.317 8.192C274.403 8.13867 274.509 8.112 274.637 8.112C274.765 8.112 274.872 8.13333 274.957 8.176C275.043 8.208 275.117 8.26133 275.181 8.336C275.245 8.4 275.299 8.48 275.341 8.576L278.061 13.424L280.781 8.576C280.824 8.48 280.877 8.4 280.941 8.336C281.005 8.26133 281.08 8.208 281.165 8.176C281.251 8.13333 281.352 8.112 281.469 8.112C281.661 8.112 281.805 8.17067 281.901 8.288C281.997 8.39467 282.045 8.56533 282.045 8.8V15.488C282.045 15.68 281.997 15.8347 281.901 15.952C281.805 16.0587 281.661 16.112 281.469 16.112C281.288 16.112 281.144 16.0587 281.037 15.952C280.941 15.8347 280.893 15.68 280.893 15.488V9.712H281.261L278.525 14.512C278.483 14.5973 278.424 14.672 278.349 14.736C278.275 14.7893 278.179 14.816 278.061 14.816C277.933 14.816 277.832 14.784 277.757 14.72C277.693 14.656 277.635 14.5867 277.581 14.512L274.845 9.712H275.213V15.488C275.213 15.68 275.16 15.8347 275.053 15.952C274.957 16.0587 274.819 16.112 274.637 16.112ZM288.128 16.144C287.307 16.144 286.597 15.984 286 15.664C285.413 15.3333 284.955 14.8693 284.624 14.272C284.304 13.6747 284.144 12.96 284.144 12.128C284.144 11.3173 284.304 10.6133 284.624 10.016C284.944 9.408 285.381 8.93333 285.936 8.592C286.501 8.25067 287.152 8.08 287.888 8.08C288.411 8.08 288.88 8.17067 289.296 8.352C289.712 8.52267 290.064 8.77333 290.352 9.104C290.651 9.43467 290.875 9.83467 291.024 10.304C291.184 10.7733 291.264 11.3013 291.264 11.888C291.264 12.0587 291.216 12.1867 291.12 12.272C291.024 12.3467 290.885 12.384 290.704 12.384H285.136V11.536H290.4L290.144 11.744C290.144 11.168 290.059 10.6827 289.888 10.288C289.717 9.88267 289.467 9.57333 289.136 9.36C288.816 9.14667 288.411 9.04 287.92 9.04C287.376 9.04 286.912 9.168 286.528 9.424C286.155 9.66933 285.872 10.016 285.68 10.464C285.488 10.9013 285.392 11.4133 285.392 12V12.096C285.392 13.0773 285.627 13.824 286.096 14.336C286.576 14.848 287.253 15.104 288.128 15.104C288.491 15.104 288.848 15.056 289.2 14.96C289.563 14.864 289.915 14.704 290.256 14.48C290.405 14.384 290.539 14.3413 290.656 14.352C290.784 14.352 290.885 14.3893 290.96 14.464C291.035 14.528 291.083 14.6133 291.104 14.72C291.136 14.816 291.125 14.9227 291.072 15.04C291.029 15.1573 290.939 15.2587 290.8 15.344C290.448 15.6 290.032 15.7973 289.552 15.936C289.072 16.0747 288.597 16.144 288.128 16.144ZM295.552 16.112C295.349 16.112 295.189 16.0533 295.072 15.936C294.955 15.8187 294.896 15.6533 294.896 15.44V9.264H292.56C292.155 9.264 291.952 9.088 291.952 8.736C291.952 8.576 292.005 8.45333 292.112 8.368C292.219 8.272 292.368 8.224 292.56 8.224H298.544C298.939 8.224 299.136 8.39467 299.136 8.736C299.136 8.90667 299.083 9.04 298.976 9.136C298.88 9.22133 298.736 9.264 298.544 9.264H296.192V15.44C296.192 15.6533 296.139 15.8187 296.032 15.936C295.936 16.0533 295.776 16.112 295.552 16.112ZM303.606 16.144C302.849 16.144 302.193 15.9787 301.638 15.648C301.083 15.3173 300.651 14.8533 300.342 14.256C300.043 13.648 299.894 12.9333 299.894 12.112C299.894 11.4933 299.979 10.9387 300.15 10.448C300.321 9.94667 300.571 9.52 300.902 9.168C301.233 8.816 301.622 8.54933 302.07 8.368C302.529 8.176 303.041 8.08 303.606 8.08C304.363 8.08 305.019 8.24533 305.574 8.576C306.129 8.90667 306.555 9.376 306.854 9.984C307.163 10.5813 307.318 11.2907 307.318 12.112C307.318 12.7307 307.233 13.2853 307.062 13.776C306.891 14.2667 306.641 14.6933 306.31 15.056C305.979 15.408 305.585 15.68 305.126 15.872C304.678 16.0533 304.171 16.144 303.606 16.144ZM303.606 15.104C304.086 15.104 304.507 14.9867 304.87 14.752C305.233 14.5173 305.51 14.176 305.702 13.728C305.905 13.28 306.006 12.7413 306.006 12.112C306.006 11.1413 305.787 10.4 305.35 9.888C304.923 9.376 304.342 9.12 303.606 9.12C303.115 9.12 302.689 9.23733 302.326 9.472C301.974 9.696 301.697 10.032 301.494 10.48C301.302 10.9173 301.206 11.4613 301.206 12.112C301.206 13.072 301.425 13.8133 301.862 14.336C302.299 14.848 302.881 15.104 303.606 15.104ZM315.232 16.112C315.03 16.112 314.87 16.0533 314.752 15.936C314.646 15.8187 314.592 15.6533 314.592 15.44V9.264H311.456V10.256C311.456 11.088 311.414 11.824 311.328 12.464C311.254 13.0933 311.131 13.6373 310.96 14.096C310.79 14.5547 310.56 14.9387 310.272 15.248C309.995 15.5573 309.648 15.8187 309.232 16.032C309.094 16.096 308.96 16.112 308.832 16.08C308.704 16.0587 308.598 16.0107 308.512 15.936C308.438 15.8507 308.384 15.7493 308.352 15.632C308.331 15.5147 308.347 15.3973 308.4 15.28C308.454 15.1627 308.55 15.0667 308.688 14.992C308.998 14.8213 309.248 14.608 309.44 14.352C309.643 14.096 309.803 13.776 309.92 13.392C310.038 13.008 310.118 12.56 310.16 12.048C310.214 11.5253 310.24 10.912 310.24 10.208V8.96C310.24 8.71467 310.304 8.53333 310.432 8.416C310.56 8.288 310.742 8.224 310.976 8.224H315.152C315.387 8.224 315.568 8.288 315.696 8.416C315.824 8.53333 315.888 8.71467 315.888 8.96V15.44C315.888 15.6533 315.83 15.8187 315.712 15.936C315.606 16.0533 315.446 16.112 315.232 16.112ZM321.7 16.144C320.943 16.144 320.287 15.9787 319.732 15.648C319.177 15.3173 318.745 14.8533 318.436 14.256C318.137 13.648 317.988 12.9333 317.988 12.112C317.988 11.4933 318.073 10.9387 318.244 10.448C318.415 9.94667 318.665 9.52 318.996 9.168C319.327 8.816 319.716 8.54933 320.164 8.368C320.623 8.176 321.135 8.08 321.7 8.08C322.457 8.08 323.113 8.24533 323.668 8.576C324.223 8.90667 324.649 9.376 324.948 9.984C325.257 10.5813 325.412 11.2907 325.412 12.112C325.412 12.7307 325.327 13.2853 325.156 13.776C324.985 14.2667 324.735 14.6933 324.404 15.056C324.073 15.408 323.679 15.68 323.22 15.872C322.772 16.0533 322.265 16.144 321.7 16.144ZM321.7 15.104C322.18 15.104 322.601 14.9867 322.964 14.752C323.327 14.5173 323.604 14.176 323.796 13.728C323.999 13.28 324.1 12.7413 324.1 12.112C324.1 11.1413 323.881 10.4 323.444 9.888C323.017 9.376 322.436 9.12 321.7 9.12C321.209 9.12 320.783 9.23733 320.42 9.472C320.068 9.696 319.791 10.032 319.588 10.48C319.396 10.9173 319.3 11.4613 319.3 12.112C319.3 13.072 319.519 13.8133 319.956 14.336C320.393 14.848 320.975 15.104 321.7 15.104ZM328.17 16.112C327.957 16.112 327.792 16.0533 327.674 15.936C327.568 15.808 327.514 15.632 327.514 15.408V8.96C327.514 8.71467 327.578 8.53333 327.706 8.416C327.834 8.288 328.016 8.224 328.25 8.224H332.49C332.693 8.224 332.842 8.26667 332.938 8.352C333.034 8.43733 333.082 8.56533 333.082 8.736C333.082 8.90667 333.034 9.04 332.938 9.136C332.842 9.22133 332.693 9.264 332.49 9.264H328.81V15.408C328.81 15.8773 328.597 16.112 328.17 16.112ZM335.06 16.112C334.942 16.112 334.836 16.0853 334.74 16.032C334.654 15.9893 334.585 15.9147 334.532 15.808C334.489 15.7013 334.468 15.568 334.468 15.408V8.752C334.468 8.53867 334.521 8.37867 334.628 8.272C334.734 8.16533 334.878 8.112 335.06 8.112C335.252 8.112 335.396 8.16533 335.492 8.272C335.598 8.37867 335.652 8.53867 335.652 8.752V14.768H335.252L339.908 8.528C339.993 8.41067 340.094 8.31467 340.212 8.24C340.329 8.15467 340.478 8.112 340.66 8.112C340.788 8.112 340.894 8.13333 340.98 8.176C341.065 8.21867 341.129 8.29333 341.172 8.4C341.225 8.496 341.252 8.62933 341.252 8.8V15.472C341.252 15.6747 341.198 15.8347 341.092 15.952C340.996 16.0587 340.852 16.112 340.66 16.112C340.468 16.112 340.318 16.0587 340.212 15.952C340.116 15.8347 340.068 15.6747 340.068 15.472V9.44H340.468L335.796 15.696C335.721 15.8027 335.625 15.8987 335.508 15.984C335.401 16.0693 335.252 16.112 335.06 16.112ZM349.267 16.112C349.065 16.112 348.91 16.0587 348.803 15.952C348.697 15.8347 348.643 15.68 348.643 15.488V13.04H347.507C347.091 13.04 346.734 13.1467 346.435 13.36C346.137 13.5733 345.897 13.8347 345.715 14.144L344.803 15.744C344.707 15.904 344.595 16.0107 344.467 16.064C344.339 16.1173 344.211 16.128 344.083 16.096C343.955 16.064 343.843 16 343.747 15.904C343.651 15.808 343.593 15.696 343.571 15.568C343.55 15.4293 343.582 15.2853 343.667 15.136L344.435 13.84C344.617 13.52 344.857 13.2533 345.155 13.04C345.454 12.8267 345.758 12.72 346.067 12.72H346.275V12.864C345.401 12.864 344.723 12.6613 344.243 12.256C343.763 11.8507 343.523 11.2853 343.523 10.56C343.523 10.08 343.625 9.66933 343.827 9.328C344.041 8.976 344.361 8.704 344.787 8.512C345.214 8.32 345.742 8.224 346.371 8.224H349.187C349.411 8.224 349.582 8.28267 349.699 8.4C349.817 8.51733 349.875 8.68267 349.875 8.896V15.488C349.875 15.68 349.817 15.8347 349.699 15.952C349.593 16.0587 349.449 16.112 349.267 16.112ZM346.611 12.096H348.643V9.136H346.611C345.982 9.136 345.518 9.26933 345.219 9.536C344.921 9.792 344.771 10.1493 344.771 10.608C344.771 11.0773 344.921 11.4453 345.219 11.712C345.518 11.968 345.982 12.096 346.611 12.096Z" fill="#353535"/>
<path d="M80.88 16.544C80.8267 16.6827 80.752 16.784 80.656 16.848C80.5707 16.912 80.4693 16.944 80.352 16.944C80.2347 16.944 80.128 16.912 80.032 16.848C79.9467 16.7947 79.8827 16.7147 79.84 16.608C79.7973 16.5013 79.7973 16.3787 79.84 16.24L83.648 4.432C83.7013 4.29333 83.776 4.192 83.872 4.128C83.968 4.064 84.0693 4.032 84.176 4.032C84.2933 4.032 84.3947 4.064 84.48 4.128C84.576 4.18133 84.64 4.26133 84.672 4.368C84.7147 4.47467 84.7147 4.59733 84.672 4.736L80.88 16.544Z" fill="#353535"/>
<path d="M224.88 16.544C224.827 16.6827 224.752 16.784 224.656 16.848C224.571 16.912 224.469 16.944 224.352 16.944C224.235 16.944 224.128 16.912 224.032 16.848C223.947 16.7947 223.883 16.7147 223.84 16.608C223.797 16.5013 223.797 16.3787 223.84 16.24L227.648 4.432C227.701 4.29333 227.776 4.192 227.872 4.128C227.968 4.064 228.069 4.032 228.176 4.032C228.293 4.032 228.395 4.064 228.48 4.128C228.576 4.18133 228.64 4.26133 228.672 4.368C228.715 4.47467 228.715 4.59733 228.672 4.736L224.88 16.544Z" fill="#353535"/>
<path d="M369.88 16.544C369.827 16.6827 369.752 16.784 369.656 16.848C369.571 16.912 369.469 16.944 369.352 16.944C369.235 16.944 369.128 16.912 369.032 16.848C368.947 16.7947 368.883 16.7147 368.84 16.608C368.797 16.5013 368.797 16.3787 368.84 16.24L372.648 4.432C372.701 4.29333 372.776 4.192 372.872 4.128C372.968 4.064 373.069 4.032 373.176 4.032C373.293 4.032 373.395 4.064 373.48 4.128C373.576 4.18133 373.64 4.26133 373.672 4.368C373.715 4.47467 373.715 4.59733 373.672 4.736L369.88 16.544Z" fill="#353535"/>
<path d="M393.048 16.112C392.835 16.112 392.669 16.0533 392.552 15.936C392.445 15.808 392.392 15.6373 392.392 15.424V5.28C392.392 5.056 392.445 4.89067 392.552 4.784C392.669 4.66667 392.835 4.608 393.048 4.608C393.261 4.608 393.421 4.66667 393.528 4.784C393.645 4.89067 393.704 5.056 393.704 5.28V9.744H395.912L395.528 10L398.856 4.96C398.952 4.81067 399.064 4.71467 399.192 4.672C399.32 4.61867 399.448 4.608 399.576 4.64C399.704 4.66133 399.811 4.72 399.896 4.816C399.981 4.90133 400.029 5.01333 400.04 5.152C400.061 5.28 400.024 5.41867 399.928 5.568L396.808 10.224L396.312 9.792C396.963 9.86667 397.517 10.096 397.976 10.48C398.435 10.864 398.835 11.3973 399.176 12.08L400.696 15.184C400.781 15.3547 400.808 15.5093 400.776 15.648C400.744 15.776 400.675 15.8773 400.568 15.952C400.461 16.0267 400.339 16.0693 400.2 16.08C400.072 16.1013 399.944 16.08 399.816 16.016C399.688 15.952 399.587 15.84 399.512 15.68L398.088 12.688C397.768 12.0373 397.405 11.5733 397 11.296C396.605 11.0187 396.115 10.88 395.528 10.88H393.704V15.424C393.704 15.6373 393.651 15.808 393.544 15.936C393.437 16.0533 393.272 16.112 393.048 16.112ZM405.684 16.144C404.927 16.144 404.271 15.9787 403.716 15.648C403.162 15.3173 402.73 14.8533 402.42 14.256C402.122 13.648 401.972 12.9333 401.972 12.112C401.972 11.4933 402.058 10.9387 402.228 10.448C402.399 9.94667 402.65 9.52 402.98 9.168C403.311 8.816 403.7 8.54933 404.148 8.368C404.607 8.176 405.119 8.08 405.684 8.08C406.442 8.08 407.098 8.24533 407.652 8.576C408.207 8.90667 408.634 9.376 408.932 9.984C409.242 10.5813 409.396 11.2907 409.396 12.112C409.396 12.7307 409.311 13.2853 409.14 13.776C408.97 14.2667 408.719 14.6933 408.388 15.056C408.058 15.408 407.663 15.68 407.204 15.872C406.756 16.0533 406.25 16.144 405.684 16.144ZM405.684 15.104C406.164 15.104 406.586 14.9867 406.948 14.752C407.311 14.5173 407.588 14.176 407.78 13.728C407.983 13.28 408.084 12.7413 408.084 12.112C408.084 11.1413 407.866 10.4 407.428 9.888C407.002 9.376 406.42 9.12 405.684 9.12C405.194 9.12 404.767 9.23733 404.404 9.472C404.052 9.696 403.775 10.032 403.572 10.48C403.38 10.9173 403.284 11.4613 403.284 12.112C403.284 13.072 403.503 13.8133 403.94 14.336C404.378 14.848 404.959 15.104 405.684 15.104ZM412.155 16.112C411.941 16.112 411.776 16.0533 411.659 15.936C411.552 15.8187 411.499 15.6533 411.499 15.44V8.768C411.499 8.544 411.552 8.37867 411.659 8.272C411.776 8.16533 411.941 8.112 412.155 8.112C412.357 8.112 412.512 8.16533 412.619 8.272C412.736 8.37867 412.795 8.544 412.795 8.768V11.456H417.035V8.768C417.035 8.544 417.088 8.37867 417.195 8.272C417.312 8.16533 417.472 8.112 417.675 8.112C417.877 8.112 418.037 8.16533 418.155 8.272C418.272 8.37867 418.331 8.544 418.331 8.768V15.44C418.331 15.6533 418.272 15.8187 418.155 15.936C418.037 16.0533 417.877 16.112 417.675 16.112C417.472 16.112 417.312 16.0533 417.195 15.936C417.088 15.8187 417.035 15.6533 417.035 15.44V12.512H412.795V15.44C412.795 15.6533 412.741 15.8187 412.635 15.936C412.528 16.0533 412.368 16.112 412.155 16.112ZM423.161 16.112C422.959 16.112 422.799 16.0533 422.681 15.936C422.564 15.8187 422.505 15.6533 422.505 15.44V9.264H420.169C419.764 9.264 419.561 9.088 419.561 8.736C419.561 8.576 419.615 8.45333 419.721 8.368C419.828 8.272 419.977 8.224 420.169 8.224H426.153C426.548 8.224 426.745 8.39467 426.745 8.736C426.745 8.90667 426.692 9.04 426.585 9.136C426.489 9.22133 426.345 9.264 426.153 9.264H423.801V15.44C423.801 15.6533 423.748 15.8187 423.641 15.936C423.545 16.0533 423.385 16.112 423.161 16.112ZM429.774 18.992C429.614 18.992 429.486 18.9493 429.39 18.864C429.294 18.7787 429.235 18.6613 429.214 18.512C429.203 18.3733 429.23 18.2293 429.294 18.08L430.398 15.6V16.16L427.326 9.024C427.262 8.864 427.241 8.71467 427.262 8.576C427.283 8.43733 427.347 8.32533 427.454 8.24C427.561 8.15467 427.71 8.112 427.902 8.112C428.073 8.112 428.206 8.14933 428.302 8.224C428.398 8.29867 428.483 8.432 428.558 8.624L431.182 15.056H430.75L433.406 8.624C433.491 8.432 433.582 8.29867 433.678 8.224C433.774 8.14933 433.913 8.112 434.094 8.112C434.265 8.112 434.393 8.15467 434.478 8.24C434.574 8.32533 434.627 8.43733 434.638 8.576C434.659 8.704 434.638 8.848 434.574 9.008L430.478 18.48C430.393 18.672 430.297 18.8053 430.19 18.88C430.094 18.9547 429.955 18.992 429.774 18.992ZM437.077 18.992C436.863 18.992 436.703 18.9333 436.597 18.816C436.49 18.7093 436.437 18.5493 436.437 18.336V8.768C436.437 8.55467 436.49 8.39467 436.597 8.288C436.703 8.17067 436.858 8.112 437.061 8.112C437.274 8.112 437.434 8.17067 437.541 8.288C437.658 8.39467 437.717 8.55467 437.717 8.768V10.288L437.541 10.064C437.711 9.456 438.047 8.976 438.549 8.624C439.061 8.26133 439.669 8.08 440.373 8.08C441.066 8.08 441.669 8.24533 442.181 8.576C442.703 8.896 443.103 9.36 443.381 9.968C443.669 10.5653 443.813 11.28 443.813 12.112C443.813 12.9333 443.669 13.648 443.381 14.256C443.103 14.8533 442.709 15.3173 442.197 15.648C441.685 15.9787 441.077 16.144 440.373 16.144C439.669 16.144 439.066 15.968 438.565 15.616C438.063 15.2533 437.722 14.7733 437.541 14.176H437.733V18.336C437.733 18.5493 437.674 18.7093 437.557 18.816C437.439 18.9333 437.279 18.992 437.077 18.992ZM440.101 15.104C440.591 15.104 441.013 14.9867 441.365 14.752C441.727 14.5173 442.005 14.176 442.197 13.728C442.399 13.28 442.501 12.7413 442.501 12.112C442.501 11.1413 442.282 10.4 441.845 9.888C441.418 9.376 440.837 9.12 440.101 9.12C439.621 9.12 439.199 9.23733 438.837 9.472C438.474 9.696 438.191 10.032 437.989 10.48C437.797 10.9173 437.701 11.4613 437.701 12.112C437.701 13.072 437.919 13.8133 438.357 14.336C438.794 14.848 439.375 15.104 440.101 15.104ZM446.561 16.112C446.348 16.112 446.182 16.0533 446.065 15.936C445.958 15.8187 445.905 15.6533 445.905 15.44V8.768C445.905 8.544 445.958 8.37867 446.065 8.272C446.182 8.16533 446.348 8.112 446.561 8.112C446.764 8.112 446.918 8.16533 447.025 8.272C447.142 8.37867 447.201 8.544 447.201 8.768V11.456H451.441V8.768C451.441 8.544 451.494 8.37867 451.601 8.272C451.718 8.16533 451.878 8.112 452.081 8.112C452.284 8.112 452.444 8.16533 452.561 8.272C452.678 8.37867 452.737 8.544 452.737 8.768V15.44C452.737 15.6533 452.678 15.8187 452.561 15.936C452.444 16.0533 452.284 16.112 452.081 16.112C451.878 16.112 451.718 16.0533 451.601 15.936C451.494 15.8187 451.441 15.6533 451.441 15.44V12.512H447.201V15.44C447.201 15.6533 447.148 15.8187 447.041 15.936C446.934 16.0533 446.774 16.112 446.561 16.112ZM457.76 16.144C457.226 16.144 456.746 16.0427 456.32 15.84C455.904 15.6267 455.573 15.3387 455.328 14.976C455.082 14.6133 454.96 14.208 454.96 13.76C454.96 13.184 455.104 12.7307 455.392 12.4C455.69 12.0693 456.176 11.8347 456.848 11.696C457.53 11.5573 458.458 11.488 459.632 11.488H460.352V12.336H459.648C458.784 12.336 458.101 12.3787 457.6 12.464C457.109 12.5387 456.762 12.672 456.56 12.864C456.368 13.056 456.272 13.328 456.272 13.68C456.272 14.1173 456.421 14.4747 456.72 14.752C457.029 15.0293 457.445 15.168 457.968 15.168C458.394 15.168 458.768 15.0667 459.088 14.864C459.418 14.6613 459.674 14.384 459.856 14.032C460.048 13.68 460.144 13.2747 460.144 12.816V10.992C460.144 10.3307 460.01 9.856 459.744 9.568C459.477 9.26933 459.04 9.12 458.432 9.12C458.058 9.12 457.685 9.168 457.312 9.264C456.938 9.36 456.544 9.51467 456.128 9.728C455.978 9.80267 455.85 9.82933 455.744 9.808C455.637 9.776 455.552 9.71733 455.488 9.632C455.424 9.54667 455.386 9.45067 455.376 9.344C455.365 9.22667 455.386 9.11467 455.44 9.008C455.504 8.90133 455.6 8.816 455.728 8.752C456.197 8.51733 456.661 8.34667 457.12 8.24C457.578 8.13333 458.016 8.08 458.432 8.08C459.104 8.08 459.658 8.192 460.096 8.416C460.533 8.62933 460.858 8.96 461.072 9.408C461.285 9.84533 461.392 10.4107 461.392 11.104V15.44C461.392 15.6533 461.338 15.8187 461.232 15.936C461.136 16.0533 460.992 16.112 460.8 16.112C460.597 16.112 460.442 16.0533 460.336 15.936C460.229 15.8187 460.176 15.6533 460.176 15.44V14.192H460.32C460.234 14.5973 460.069 14.944 459.824 15.232C459.589 15.52 459.296 15.744 458.944 15.904C458.592 16.064 458.197 16.144 457.76 16.144ZM469.377 16.112C469.174 16.112 469.019 16.0587 468.913 15.952C468.806 15.8347 468.753 15.68 468.753 15.488V13.04H467.617C467.201 13.04 466.843 13.1467 466.545 13.36C466.246 13.5733 466.006 13.8347 465.825 14.144L464.913 15.744C464.817 15.904 464.705 16.0107 464.577 16.064C464.449 16.1173 464.321 16.128 464.193 16.096C464.065 16.064 463.953 16 463.857 15.904C463.761 15.808 463.702 15.696 463.681 15.568C463.659 15.4293 463.691 15.2853 463.777 15.136L464.545 13.84C464.726 13.52 464.966 13.2533 465.265 13.04C465.563 12.8267 465.867 12.72 466.177 12.72H466.385V12.864C465.51 12.864 464.833 12.6613 464.353 12.256C463.873 11.8507 463.633 11.2853 463.633 10.56C463.633 10.08 463.734 9.66933 463.937 9.328C464.15 8.976 464.47 8.704 464.897 8.512C465.323 8.32 465.851 8.224 466.481 8.224H469.297C469.521 8.224 469.691 8.28267 469.809 8.4C469.926 8.51733 469.985 8.68267 469.985 8.896V15.488C469.985 15.68 469.926 15.8347 469.809 15.952C469.702 16.0587 469.558 16.112 469.377 16.112ZM466.721 12.096H468.753V9.136H466.721C466.091 9.136 465.627 9.26933 465.329 9.536C465.03 9.792 464.881 10.1493 464.881 10.608C464.881 11.0773 465.03 11.4453 465.329 11.712C465.627 11.968 466.091 12.096 466.721 12.096ZM477.327 16.112C477.113 16.112 476.948 16.0533 476.831 15.936C476.724 15.8187 476.671 15.6533 476.671 15.44V8.96C476.671 8.71467 476.735 8.53333 476.863 8.416C476.991 8.288 477.172 8.224 477.407 8.224H482.719C482.953 8.224 483.135 8.288 483.263 8.416C483.391 8.53333 483.455 8.71467 483.455 8.96V15.44C483.455 15.6533 483.396 15.8187 483.279 15.936C483.161 16.0533 483.001 16.112 482.799 16.112C482.596 16.112 482.436 16.0533 482.319 15.936C482.212 15.8187 482.159 15.6533 482.159 15.44V9.264H477.967V15.44C477.967 15.6533 477.913 15.8187 477.807 15.936C477.7 16.0533 477.54 16.112 477.327 16.112ZM491.982 16.112C491.78 16.112 491.62 16.0533 491.502 15.936C491.396 15.8187 491.342 15.6533 491.342 15.44V9.264H488.206V10.256C488.206 11.088 488.164 11.824 488.078 12.464C488.004 13.0933 487.881 13.6373 487.71 14.096C487.54 14.5547 487.31 14.9387 487.022 15.248C486.745 15.5573 486.398 15.8187 485.982 16.032C485.844 16.096 485.71 16.112 485.582 16.08C485.454 16.0587 485.348 16.0107 485.262 15.936C485.188 15.8507 485.134 15.7493 485.102 15.632C485.081 15.5147 485.097 15.3973 485.15 15.28C485.204 15.1627 485.3 15.0667 485.438 14.992C485.748 14.8213 485.998 14.608 486.19 14.352C486.393 14.096 486.553 13.776 486.67 13.392C486.788 13.008 486.868 12.56 486.91 12.048C486.964 11.5253 486.99 10.912 486.99 10.208V8.96C486.99 8.71467 487.054 8.53333 487.182 8.416C487.31 8.288 487.492 8.224 487.726 8.224H491.902C492.137 8.224 492.318 8.288 492.446 8.416C492.574 8.53333 492.638 8.71467 492.638 8.96V15.44C492.638 15.6533 492.58 15.8187 492.462 15.936C492.356 16.0533 492.196 16.112 491.982 16.112ZM497.666 16.144C497.133 16.144 496.653 16.0427 496.226 15.84C495.81 15.6267 495.479 15.3387 495.234 14.976C494.989 14.6133 494.866 14.208 494.866 13.76C494.866 13.184 495.01 12.7307 495.298 12.4C495.597 12.0693 496.082 11.8347 496.754 11.696C497.437 11.5573 498.365 11.488 499.538 11.488H500.258V12.336H499.554C498.69 12.336 498.007 12.3787 497.506 12.464C497.015 12.5387 496.669 12.672 496.466 12.864C496.274 13.056 496.178 13.328 496.178 13.68C496.178 14.1173 496.327 14.4747 496.626 14.752C496.935 15.0293 497.351 15.168 497.874 15.168C498.301 15.168 498.674 15.0667 498.994 14.864C499.325 14.6613 499.581 14.384 499.762 14.032C499.954 13.68 500.05 13.2747 500.05 12.816V10.992C500.05 10.3307 499.917 9.856 499.65 9.568C499.383 9.26933 498.946 9.12 498.338 9.12C497.965 9.12 497.591 9.168 497.218 9.264C496.845 9.36 496.45 9.51467 496.034 9.728C495.885 9.80267 495.757 9.82933 495.65 9.808C495.543 9.776 495.458 9.71733 495.394 9.632C495.33 9.54667 495.293 9.45067 495.282 9.344C495.271 9.22667 495.293 9.11467 495.346 9.008C495.41 8.90133 495.506 8.816 495.634 8.752C496.103 8.51733 496.567 8.34667 497.026 8.24C497.485 8.13333 497.922 8.08 498.338 8.08C499.01 8.08 499.565 8.192 500.002 8.416C500.439 8.62933 500.765 8.96 500.978 9.408C501.191 9.84533 501.298 10.4107 501.298 11.104V15.44C501.298 15.6533 501.245 15.8187 501.138 15.936C501.042 16.0533 500.898 16.112 500.706 16.112C500.503 16.112 500.349 16.0533 500.242 15.936C500.135 15.8187 500.082 15.6533 500.082 15.44V14.192H500.226C500.141 14.5973 499.975 14.944 499.73 15.232C499.495 15.52 499.202 15.744 498.85 15.904C498.498 16.064 498.103 16.144 497.666 16.144ZM507.139 16.144C506.36 16.144 505.688 15.9733 505.123 15.632C504.558 15.2907 504.12 14.816 503.811 14.208C503.512 13.5893 503.363 12.8747 503.363 12.064C503.363 11.4453 503.448 10.8907 503.619 10.4C503.79 9.90933 504.04 9.49333 504.371 9.152C504.702 8.8 505.096 8.53333 505.555 8.352C506.024 8.17067 506.552 8.08 507.139 8.08C507.523 8.08 507.923 8.13867 508.339 8.256C508.755 8.37333 509.134 8.576 509.475 8.864C509.582 8.93867 509.651 9.02933 509.683 9.136C509.715 9.24267 509.715 9.34933 509.683 9.456C509.651 9.552 509.598 9.63733 509.523 9.712C509.448 9.776 509.352 9.81333 509.235 9.824C509.128 9.83467 509.016 9.79733 508.899 9.712C508.622 9.49867 508.339 9.34933 508.051 9.264C507.763 9.17867 507.486 9.136 507.219 9.136C506.803 9.136 506.44 9.20533 506.131 9.344C505.822 9.472 505.56 9.65867 505.347 9.904C505.134 10.1493 504.968 10.4533 504.851 10.816C504.744 11.1787 504.691 11.6 504.691 12.08C504.691 13.008 504.91 13.744 505.347 14.288C505.784 14.8213 506.408 15.088 507.219 15.088C507.486 15.088 507.758 15.0453 508.035 14.96C508.323 14.8747 508.611 14.7253 508.899 14.512C509.016 14.4267 509.128 14.3893 509.235 14.4C509.342 14.4107 509.432 14.4533 509.507 14.528C509.582 14.592 509.63 14.6773 509.651 14.784C509.683 14.8907 509.683 14.9973 509.651 15.104C509.619 15.2 509.55 15.2853 509.443 15.36C509.102 15.6373 508.728 15.84 508.323 15.968C507.918 16.0853 507.523 16.144 507.139 16.144ZM513.661 16.112C513.459 16.112 513.299 16.0533 513.181 15.936C513.064 15.8187 513.005 15.6533 513.005 15.44V9.264H510.669C510.264 9.264 510.061 9.088 510.061 8.736C510.061 8.576 510.115 8.45333 510.221 8.368C510.328 8.272 510.477 8.224 510.669 8.224H516.653C517.048 8.224 517.245 8.39467 517.245 8.736C517.245 8.90667 517.192 9.04 517.085 9.136C516.989 9.22133 516.845 9.264 516.653 9.264H514.301V15.44C514.301 15.6533 514.248 15.8187 514.141 15.936C514.045 16.0533 513.885 16.112 513.661 16.112ZM519.091 16.112C518.973 16.112 518.867 16.0853 518.771 16.032C518.685 15.9893 518.616 15.9147 518.563 15.808C518.52 15.7013 518.499 15.568 518.499 15.408V8.752C518.499 8.53867 518.552 8.37867 518.659 8.272C518.765 8.16533 518.909 8.112 519.091 8.112C519.283 8.112 519.427 8.16533 519.523 8.272C519.629 8.37867 519.683 8.53867 519.683 8.752V14.768H519.283L523.939 8.528C524.024 8.41067 524.125 8.31467 524.243 8.24C524.36 8.15467 524.509 8.112 524.691 8.112C524.819 8.112 524.925 8.13333 525.011 8.176C525.096 8.21867 525.16 8.29333 525.203 8.4C525.256 8.496 525.283 8.62933 525.283 8.8V15.472C525.283 15.6747 525.229 15.8347 525.123 15.952C525.027 16.0587 524.883 16.112 524.691 16.112C524.499 16.112 524.349 16.0587 524.243 15.952C524.147 15.8347 524.099 15.6747 524.099 15.472V9.44H524.499L519.827 15.696C519.752 15.8027 519.656 15.8987 519.539 15.984C519.432 16.0693 519.283 16.112 519.091 16.112ZM528.499 16.112C528.285 16.112 528.12 16.0533 528.003 15.936C527.896 15.8187 527.843 15.6533 527.843 15.44V8.816C527.843 8.592 527.896 8.42667 528.003 8.32C528.12 8.20267 528.285 8.144 528.499 8.144C528.701 8.144 528.856 8.20267 528.963 8.32C529.08 8.42667 529.139 8.592 529.139 8.816V11.472H530.595L532.963 8.432C533.069 8.304 533.187 8.224 533.315 8.192C533.443 8.14933 533.56 8.14933 533.667 8.192C533.784 8.224 533.875 8.288 533.939 8.384C534.013 8.46933 534.051 8.576 534.051 8.704C534.051 8.832 534.003 8.96533 533.907 9.104L531.651 12L531.283 11.584C531.581 11.616 531.843 11.6907 532.067 11.808C532.291 11.9253 532.504 12.1013 532.707 12.336C532.909 12.5707 533.128 12.896 533.363 13.312L534.515 15.216C534.589 15.3653 534.616 15.4987 534.595 15.616C534.584 15.7333 534.531 15.84 534.435 15.936C534.339 16.0213 534.227 16.0747 534.099 16.096C533.981 16.1173 533.864 16.1013 533.747 16.048C533.629 15.9947 533.523 15.8987 533.427 15.76L532.163 13.648C531.981 13.3493 531.811 13.12 531.651 12.96C531.491 12.7893 531.309 12.672 531.107 12.608C530.904 12.544 530.653 12.512 530.355 12.512H529.139V15.44C529.139 15.6533 529.08 15.8187 528.963 15.936C528.856 16.0533 528.701 16.112 528.499 16.112ZM538.728 16.144C538.195 16.144 537.715 16.0427 537.288 15.84C536.872 15.6267 536.542 15.3387 536.296 14.976C536.051 14.6133 535.928 14.208 535.928 13.76C535.928 13.184 536.072 12.7307 536.36 12.4C536.659 12.0693 537.144 11.8347 537.816 11.696C538.499 11.5573 539.427 11.488 540.6 11.488H541.32V12.336H540.616C539.752 12.336 539.07 12.3787 538.568 12.464C538.078 12.5387 537.731 12.672 537.528 12.864C537.336 13.056 537.24 13.328 537.24 13.68C537.24 14.1173 537.39 14.4747 537.688 14.752C537.998 15.0293 538.414 15.168 538.936 15.168C539.363 15.168 539.736 15.0667 540.056 14.864C540.387 14.6613 540.643 14.384 540.824 14.032C541.016 13.68 541.112 13.2747 541.112 12.816V10.992C541.112 10.3307 540.979 9.856 540.712 9.568C540.446 9.26933 540.008 9.12 539.4 9.12C539.027 9.12 538.654 9.168 538.28 9.264C537.907 9.36 537.512 9.51467 537.096 9.728C536.947 9.80267 536.819 9.82933 536.712 9.808C536.606 9.776 536.52 9.71733 536.456 9.632C536.392 9.54667 536.355 9.45067 536.344 9.344C536.334 9.22667 536.355 9.11467 536.408 9.008C536.472 8.90133 536.568 8.816 536.696 8.752C537.166 8.51733 537.63 8.34667 538.088 8.24C538.547 8.13333 538.984 8.08 539.4 8.08C540.072 8.08 540.627 8.192 541.064 8.416C541.502 8.62933 541.827 8.96 542.04 9.408C542.254 9.84533 542.36 10.4107 542.36 11.104V15.44C542.36 15.6533 542.307 15.8187 542.2 15.936C542.104 16.0533 541.96 16.112 541.768 16.112C541.566 16.112 541.411 16.0533 541.304 15.936C541.198 15.8187 541.144 15.6533 541.144 15.44V14.192H541.288C541.203 14.5973 541.038 14.944 540.792 15.232C540.558 15.52 540.264 15.744 539.912 15.904C539.56 16.064 539.166 16.144 538.728 16.144Z" fill="#353535" fill-opacity="0.6"/>
<path d="M1 21H63" stroke="#353535" stroke-linecap="round" stroke-linejoin="round"/>
<path d="M103 21H206" stroke="#353535" stroke-linecap="round" stroke-linejoin="round"/>
<path d="M246 21H352" stroke="#353535" stroke-linecap="round" stroke-linejoin="round"/>
</svg>
