<svg width="220" height="74" viewBox="0 0 220 74" fill="none" xmlns="http://www.w3.org/2000/svg">
<path d="M207.435 20.5996V35.4878L185.883 35.4917V20.5996H179.34V42.72H180.103C187.883 42.7162 195.662 42.7085 203.441 42.6969C204.953 42.6949 206.465 42.6904 207.977 42.6859C210.027 42.6798 212.077 42.6737 214.128 42.6739V45.2385H220.001V35.4272H214.19C214.106 35.2976 214.106 35.0651 214.106 34.6479V21.48C214.106 21.2676 214.093 21.0533 214.08 20.8504C214.075 20.7644 214.07 20.6805 214.066 20.5996H207.435Z" fill="#00578A"/>
<path d="M131.682 29.3056V42.6516H125.078V20.6069C126.813 20.6069 128.524 20.6069 130.233 20.6165C130.471 20.6531 130.701 20.7331 130.91 20.8528C136.804 23.3592 142.695 25.8726 148.581 28.3931C148.816 28.5044 149.074 28.56 149.334 28.5557C149.594 28.5514 149.85 28.4872 150.081 28.3682C155.783 25.8438 161.493 23.3368 167.21 20.847C167.562 20.6978 167.939 20.6176 168.321 20.6107C169.865 20.5857 171.408 20.6107 173.01 20.6107V42.6804H166.439V29.3787C166.08 29.5227 165.837 29.6111 165.604 29.7149C160.454 31.9946 155.306 34.2794 150.162 36.5693C149.933 36.6897 149.679 36.7552 149.421 36.7605C149.162 36.7658 148.906 36.711 148.673 36.6001C143.311 34.2666 137.94 31.9497 132.562 29.6495C132.302 29.5285 132.033 29.4401 131.682 29.3056Z" fill="#00578A"/>
<path d="M84.1484 20.5996H119.003V21.6744C119.003 23.3924 118.967 25.1104 119.019 26.8285C119.041 27.552 118.787 27.7047 118.108 27.7028C109.339 27.6824 100.569 27.6779 91.7994 27.6894H90.7476V42.4111H84.1484V20.5996Z" fill="#00578A"/>
<path d="M84.0156 53.5862V49.1431H87.247V49.7882H84.8382V53.5862H84.0156Z" fill="#151515"/>
<path d="M90.0771 53.5856C89.6792 53.5953 89.2859 53.4998 88.9381 53.3088C88.6162 53.1227 88.3561 52.848 88.1897 52.5184C88.0038 52.1398 87.9123 51.7228 87.9228 51.3022C87.9113 50.8785 88.0028 50.4582 88.1897 50.0765C88.3561 49.7469 88.6162 49.4723 88.9381 49.2862C89.2856 49.0943 89.6791 48.9987 90.0771 49.0094C90.4762 48.9994 90.8708 49.095 91.2199 49.2862C91.5427 49.4707 91.8025 49.7458 91.9664 50.0765C92.1502 50.4557 92.2403 50.8725 92.2294 51.2927C92.2408 51.716 92.1507 52.136 91.9664 52.5184C91.8025 52.8491 91.5427 53.1243 91.2199 53.3088C90.8704 53.499 90.4761 53.5945 90.0771 53.5856ZM90.0771 52.9517C90.2599 52.9583 90.4418 52.9239 90.6093 52.8512C90.7767 52.7784 90.9253 52.6692 91.044 52.5317C91.2876 52.2492 91.4094 51.8362 91.4094 51.2927C91.4094 50.7492 91.2876 50.3394 91.044 50.0632C90.924 49.9278 90.775 49.8204 90.6077 49.7491C90.4405 49.6777 90.2592 49.6442 90.0771 49.6508C89.8949 49.6439 89.7136 49.6773 89.5462 49.7487C89.3789 49.82 89.2299 49.9275 89.1102 50.0632C88.8704 50.3381 88.7505 50.7479 88.7505 51.2927C88.7505 51.8374 88.8704 52.2505 89.1102 52.5317C89.2286 52.6694 89.3772 52.7788 89.5447 52.8515C89.7122 52.9243 89.8942 52.9586 90.0771 52.9517Z" fill="#151515"/>
<path d="M93.5144 55.4712V50.1457C93.5144 49.974 93.5144 49.7984 93.4946 49.6209C93.4749 49.4434 93.4651 49.2658 93.4414 49.0883H94.2301L94.3287 50.1187H94.2301C94.313 49.7866 94.5197 49.4968 94.8097 49.3063C95.1237 49.1028 95.4941 48.9991 95.8705 49.0092C96.2436 49.0011 96.6115 49.0968 96.9312 49.2851C97.2406 49.4758 97.4855 49.7517 97.6351 50.0781C97.8096 50.4683 97.8944 50.8912 97.8836 51.3169C97.8943 51.7439 97.8095 52.168 97.6351 52.5595C97.4868 52.8883 97.2417 53.1664 96.9312 53.3583C96.6115 53.5467 96.2436 53.6424 95.8705 53.6343C95.4986 53.6429 95.133 53.5391 94.8235 53.3371C94.5361 53.1451 94.3267 52.8603 94.232 52.5325H94.3306V55.4712H93.5144ZM95.6832 52.9937C95.8714 53.0012 96.059 52.9669 96.2318 52.8934C96.4045 52.8199 96.5581 52.7091 96.6808 52.5692C96.928 52.2836 97.0515 51.8662 97.0515 51.3169C97.0515 50.7677 96.928 50.3535 96.6808 50.0743C96.5568 49.9365 96.4028 49.8276 96.2302 49.7555C96.0576 49.6833 95.8707 49.6499 95.6832 49.6575C95.4975 49.6505 95.3126 49.6843 95.142 49.7564C94.9714 49.8286 94.8194 49.9372 94.6974 50.0743C94.4529 50.3522 94.3306 50.7664 94.3306 51.3169C94.3306 51.8675 94.4529 52.2849 94.6974 52.5692C94.819 52.7094 94.9717 52.8206 95.1439 52.8941C95.3162 52.9677 95.5033 53.0018 95.6911 52.9937H95.6832Z" fill="#151515"/>
<path d="M100.978 53.5856C100.58 53.5951 100.186 53.4995 99.8385 53.3088C99.5178 53.1218 99.2586 52.8473 99.0921 52.5184C98.9062 52.1398 98.8147 51.7228 98.8252 51.3022C98.8136 50.8785 98.9052 50.4582 99.0921 50.0765C99.2586 49.7476 99.5178 49.4731 99.8385 49.2861C100.186 49.0945 100.58 48.9989 100.978 49.0093C101.377 48.9992 101.771 49.0947 102.12 49.2861C102.444 49.4706 102.704 49.7457 102.869 50.0765C103.052 50.4558 103.142 50.8725 103.132 51.2927C103.142 51.7159 103.052 52.1357 102.869 52.5184C102.704 52.8492 102.444 53.1243 102.12 53.3088C101.771 53.4993 101.377 53.5949 100.978 53.5856ZM100.978 52.9518C101.16 52.9583 101.342 52.9239 101.51 52.8512C101.677 52.7784 101.826 52.6692 101.944 52.5318C102.187 52.2492 102.308 51.8362 102.308 51.2927C102.308 50.7492 102.187 50.3394 101.944 50.0632C101.824 49.9278 101.675 49.8206 101.508 49.7493C101.341 49.6779 101.16 49.6443 100.978 49.6508C100.795 49.6437 100.614 49.6771 100.447 49.7485C100.279 49.8198 100.13 49.9274 100.011 50.0632C99.7696 50.3381 99.649 50.7479 99.649 51.2927C99.649 51.8374 99.7696 52.2505 100.011 52.5318C100.129 52.6696 100.278 52.779 100.445 52.8518C100.613 52.9246 100.795 52.9587 100.978 52.9518Z" fill="#151515"/>
<path d="M104.078 54.6633V52.9117H104.566C104.777 52.592 104.926 52.2374 105.007 51.8653C105.105 51.3944 105.15 50.9146 105.144 50.434V49.1431H108.349V52.9117H109.06V54.6633H108.367V53.5259H104.771V54.6633H104.078ZM105.331 52.9192H107.595V49.7573H105.858V50.5781C105.859 51.0099 105.814 51.4406 105.725 51.8634C105.648 52.2343 105.512 52.5907 105.321 52.9192H105.331Z" fill="#151515"/>
<path d="M112.095 53.5855C111.683 53.5956 111.277 53.5001 110.916 53.3087C110.583 53.1221 110.314 52.8437 110.143 52.5087C109.95 52.1219 109.856 51.6956 109.868 51.2658C109.856 50.8442 109.951 50.4261 110.147 50.0497C110.326 49.7228 110.599 49.4539 110.933 49.2764C111.292 49.0921 111.693 49.0001 112.099 49.0091C112.391 49.0084 112.682 49.0575 112.957 49.1543C113.214 49.2385 113.447 49.3812 113.635 49.5704L113.356 50.1337C113.191 49.9748 112.993 49.8507 112.776 49.769C112.578 49.6927 112.367 49.6526 112.154 49.6506C111.958 49.6408 111.762 49.673 111.581 49.7449C111.4 49.8169 111.237 49.9268 111.104 50.0668C110.851 50.3456 110.725 50.7484 110.725 51.2754C110.695 51.7162 110.829 52.1529 111.104 52.5049C111.235 52.6486 111.397 52.7618 111.578 52.8362C111.76 52.9106 111.957 52.9442 112.154 52.9345C112.364 52.9321 112.572 52.8934 112.769 52.8199C112.988 52.7404 113.189 52.6182 113.358 52.461L113.637 53.0147C113.445 53.2086 113.208 53.3546 112.945 53.4404C112.672 53.5357 112.385 53.5848 112.095 53.5855Z" fill="#151515"/>
<path d="M114.715 53.5862V49.1431H115.515V50.9806H116.332L117.779 49.1431H118.665L116.984 51.3013L116.771 51.0555C116.927 51.068 117.079 51.1111 117.218 51.1822C117.354 51.2605 117.476 51.3604 117.579 51.4779C117.72 51.6411 117.847 51.8158 117.958 52.0001L118.889 53.5804H118.012L117.198 52.2114C117.126 52.0763 117.036 51.9516 116.93 51.8408C116.847 51.7542 116.745 51.6884 116.631 51.6488C116.496 51.6108 116.355 51.5934 116.215 51.597H115.515V53.5747L114.715 53.5862Z" fill="#151515"/>
<path d="M121.713 53.5856C121.315 53.5953 120.921 53.4998 120.573 53.3088C120.251 53.1227 119.991 52.848 119.825 52.5184C119.639 52.1396 119.549 51.7227 119.56 51.3022C119.548 50.8787 119.638 50.4583 119.825 50.0765C119.991 49.7469 120.251 49.4723 120.573 49.2862C120.921 49.0943 121.315 48.9987 121.713 49.0094C122.112 48.9992 122.507 49.0948 122.856 49.2862C123.179 49.4707 123.439 49.7458 123.603 50.0765C123.787 50.4557 123.877 50.8725 123.866 51.2927C123.877 51.716 123.787 52.136 123.603 52.5184C123.439 52.8491 123.179 53.1243 122.856 53.3088C122.507 53.4993 122.112 53.5948 121.713 53.5856ZM121.713 52.9517C121.896 52.9583 122.078 52.9239 122.245 52.8512C122.413 52.7784 122.561 52.6692 122.68 52.5317C122.924 52.2492 123.046 51.8362 123.046 51.2927C123.046 50.7492 122.924 50.3394 122.68 50.0632C122.56 49.9278 122.411 49.8204 122.244 49.7491C122.076 49.6777 121.895 49.6442 121.713 49.6508C121.531 49.6439 121.349 49.6773 121.182 49.7487C121.014 49.82 120.865 49.9275 120.746 50.0632C120.506 50.3381 120.386 50.7479 120.386 51.2927C120.386 51.8374 120.506 52.2505 120.746 52.5317C120.864 52.6694 121.013 52.7788 121.18 52.8515C121.348 52.9243 121.53 52.9586 121.713 52.9517Z" fill="#151515"/>
<path d="M125.082 53.5766V49.123H125.838V52.826H125.59L128.431 49.1327H129.121V53.5862H128.366V49.8852H128.621L125.772 53.5862L125.082 53.5766ZM127.102 48.7169C126.856 48.7197 126.611 48.6746 126.384 48.5841C126.169 48.4988 125.978 48.3671 125.824 48.1992C125.66 48.0164 125.54 47.8 125.474 47.566L125.946 47.3967C126.028 47.6435 126.183 47.8612 126.391 48.0222C126.601 48.158 126.85 48.2254 127.102 48.2146C127.355 48.2223 127.606 48.1553 127.82 48.0222C128.038 47.8587 128.208 47.6415 128.312 47.3928L128.757 47.5526C128.642 47.9065 128.41 48.214 128.099 48.4282C127.803 48.6189 127.456 48.7194 127.102 48.7169Z" fill="#151515"/>
<path d="M133.023 53.5862V49.1431H133.705L135.378 52.0501L137.058 49.1431H137.736V53.5862H137.013V50.0455H137.209L135.58 52.8719H135.175L133.548 50.0359H133.745V53.5862H133.023Z" fill="#151515"/>
<path d="M141.243 53.5863C140.535 53.5863 139.975 53.3838 139.564 52.9791C139.154 52.5762 138.95 52.0244 138.95 51.3103C138.939 50.8892 139.031 50.4718 139.22 50.0941C139.388 49.7632 139.648 49.4865 139.969 49.296C140.306 49.1003 140.692 49.0011 141.083 49.0096C141.446 48.9975 141.806 49.0875 142.119 49.2693C142.405 49.4424 142.631 49.6983 142.766 50.0025C142.922 50.3568 142.997 50.7406 142.988 51.127V51.3905H139.578V50.9151H142.439L142.289 51.0297C142.312 50.6509 142.204 50.2755 141.982 49.9662C141.873 49.8374 141.735 49.7357 141.579 49.6694C141.423 49.603 141.253 49.5739 141.083 49.5843C140.893 49.5743 140.703 49.6091 140.529 49.6861C140.355 49.7631 140.202 49.8801 140.082 50.0273C139.832 50.3788 139.708 50.8041 139.732 51.234V51.3141C139.732 51.8526 139.867 52.2593 140.136 52.5342C140.284 52.6762 140.46 52.7862 140.653 52.8572C140.846 52.9282 141.051 52.9586 141.257 52.9466C141.509 52.9492 141.76 52.9112 142 52.834C142.244 52.7494 142.469 52.6198 142.664 52.4521L142.93 53.0058C142.713 53.1963 142.457 53.3394 142.181 53.4259C141.879 53.5309 141.563 53.5851 141.243 53.5863Z" fill="#151515"/>
<path d="M143.797 54.6633V52.9117H144.297C144.513 52.592 144.666 52.2374 144.749 51.8653C144.849 51.3944 144.896 50.9146 144.889 50.434V49.1431H148.185V52.9117H148.913V54.6633H148.185V53.5259H144.517V54.6633H143.797ZM145.081 52.9192H147.394V49.7573H145.613V50.5781C145.614 51.0099 145.568 51.4406 145.477 51.8634C145.404 52.2333 145.271 52.5897 145.081 52.9192Z" fill="#151515"/>
<path d="M149.855 53.5766V49.1431H150.611V52.8294H150.366L153.204 49.1527H153.895V53.5862H153.139V49.9018H153.394L150.548 53.5862L149.855 53.5766Z" fill="#151515"/>
<path d="M159.263 54.7979V53.6336H155.375V49.1431H156.18V53.001H158.433V49.1431H159.237V53.001H159.953V54.7941L159.263 54.7979Z" fill="#151515"/>
<path d="M161.027 53.5766V49.1431H161.783V52.8294H161.537L164.375 49.1527H165.067V53.5862H164.311V49.9018H164.566L161.719 53.5862L161.027 53.5766Z" fill="#151515"/>
<path d="M166.551 53.5862V49.1431H167.37V50.9806H169.776V49.1431H170.59V53.5862H169.776V51.6161H167.37V53.5862H166.551Z" fill="#151515"/>
<path d="M174.034 53.5855C173.622 53.5956 173.214 53.5001 172.853 53.3087C172.519 53.1226 172.249 52.8441 172.079 52.5087C171.885 52.1221 171.79 51.6957 171.802 51.2658C171.79 50.844 171.886 50.426 172.083 50.0497C172.26 49.7247 172.53 49.4562 172.861 49.2764C173.22 49.0921 173.623 49.0001 174.03 49.0091C174.323 49.0084 174.614 49.0575 174.89 49.1543C175.147 49.2385 175.38 49.3812 175.569 49.5704L175.287 50.1337C175.122 49.9753 174.925 49.8512 174.709 49.769C174.509 49.6925 174.297 49.6524 174.083 49.6506C173.887 49.6411 173.692 49.6734 173.51 49.7453C173.329 49.8173 173.166 49.927 173.034 50.0668C172.779 50.3456 172.653 50.7484 172.654 51.2754C172.624 51.7162 172.759 52.1529 173.034 52.5049C173.164 52.6484 173.326 52.7616 173.508 52.836C173.689 52.9104 173.886 52.944 174.083 52.9345C174.294 52.9326 174.502 52.8938 174.699 52.8199C174.919 52.7409 175.12 52.6187 175.289 52.461L175.571 53.0147C175.378 53.2086 175.141 53.3546 174.878 53.4404C174.607 53.5345 174.321 53.5836 174.034 53.5855Z" fill="#151515"/>
<path d="M176.648 53.5862V49.1431H177.463V50.9806H178.277L179.724 49.1431H180.609L178.92 51.3013L178.704 51.0555C178.86 51.0676 179.012 51.1107 179.151 51.1822C179.288 51.2599 179.411 51.3599 179.515 51.4779C179.654 51.6421 179.781 51.8167 179.893 52.0001L180.822 53.5804H179.948L179.134 52.2114C179.062 52.0763 178.972 51.9516 178.866 51.8408C178.783 51.7542 178.68 51.6884 178.566 51.6488C178.431 51.611 178.291 51.5935 178.15 51.597H177.463V53.5747L176.648 53.5862Z" fill="#151515"/>
<path d="M181.629 53.5766V49.1431H182.384V52.8294H182.139L184.976 49.1527H185.668V53.5862H184.923V49.9018H185.178L182.331 53.5862L181.629 53.5766Z" fill="#151515"/>
<path d="M187.148 53.5766V49.1286H187.903V52.8269H187.662L190.496 49.1382H191.188V53.5862H190.427V49.8898H190.682L187.838 53.5862L187.148 53.5766ZM189.165 48.723C188.921 48.7276 188.679 48.6851 188.452 48.5981C188.238 48.5123 188.047 48.3809 187.893 48.2136C187.731 48.0301 187.611 47.8143 187.543 47.5812L188.016 47.4121C188.098 47.6519 188.249 47.8636 188.452 48.0214C188.66 48.1577 188.908 48.2251 189.159 48.2136C189.413 48.2216 189.664 48.1546 189.878 48.0214C190.097 47.8586 190.266 47.6414 190.368 47.3928L190.814 47.5524C190.698 47.9061 190.467 48.2133 190.155 48.427C189.862 48.619 189.518 48.722 189.165 48.723Z" fill="#151515"/>
<path d="M198.983 54.7979V53.6336H195.094V49.1431H195.899V53.001H198.151V49.1431H198.956V53.001H199.671V54.7941L198.983 54.7979Z" fill="#151515"/>
<path d="M202.772 53.5863C202.063 53.5863 201.504 53.3841 201.094 52.9798C200.682 52.5775 200.478 52.0264 200.478 51.3132C200.465 50.8911 200.557 50.4723 200.743 50.0927C200.913 49.7627 201.172 49.4865 201.493 49.2957C201.831 49.0998 202.218 49.0008 202.61 49.0096C202.973 48.9975 203.332 49.0874 203.646 49.2689C203.932 49.443 204.157 49.6982 204.293 50.0012C204.448 50.3554 204.524 50.7385 204.515 51.1244V51.3876H201.108V50.9127H203.968L203.818 51.0271C203.841 50.6488 203.733 50.274 203.511 49.965C203.402 49.8363 203.264 49.7348 203.108 49.6686C202.953 49.6023 202.783 49.5732 202.614 49.5836C202.423 49.5734 202.233 49.6082 202.059 49.6851C201.885 49.762 201.732 49.8789 201.612 50.026C201.359 50.3759 201.234 50.8012 201.258 51.2312V51.3113C201.258 51.849 201.391 52.2648 201.66 52.5298C201.808 52.6714 201.984 52.781 202.177 52.8519C202.37 52.9228 202.576 52.9534 202.781 52.9417C203.034 52.9444 203.285 52.9065 203.525 52.8292C203.769 52.7448 203.994 52.6154 204.189 52.4478L204.455 53.0008C204.238 53.1907 203.984 53.3336 203.708 53.4203C203.407 53.5268 203.091 53.5829 202.772 53.5863Z" fill="#151515"/>
<path d="M205.73 53.5862V49.1431H206.539V50.9806H208.953V49.1431H209.77V53.5862H208.953V51.6161H206.539V53.5862H205.73Z" fill="#151515"/>
<path d="M212.197 53.5862V49.7882H210.578V49.1431H214.617V49.7882H213.001V53.5862H212.197Z" fill="#151515"/>
<path d="M215.495 55.4712V50.1457C215.495 49.974 215.495 49.7984 215.477 49.6209C215.459 49.4434 215.445 49.2658 215.422 49.0883H216.218L216.317 50.1187H216.218C216.301 49.7866 216.507 49.4969 216.796 49.3063C217.11 49.1028 217.48 48.9991 217.856 49.0092C218.228 49.0011 218.595 49.0968 218.914 49.2851C219.222 49.4759 219.466 49.7518 219.614 50.0781C219.79 50.4678 219.875 50.891 219.864 51.3169C219.875 51.7442 219.79 52.1685 219.614 52.5595C219.467 52.8881 219.223 53.1662 218.914 53.3583C218.595 53.5467 218.228 53.6424 217.856 53.6343C217.485 53.6432 217.119 53.5394 216.81 53.3371C216.523 53.1451 216.315 52.8603 216.22 52.5325H216.319V55.4712H215.495ZM217.658 52.9937C217.845 53.0012 218.032 52.9669 218.205 52.8934C218.377 52.8199 218.53 52.7091 218.653 52.5692C218.9 52.2836 219.022 51.8668 219.022 51.3169C219.022 50.767 218.9 50.3522 218.653 50.0743C218.529 49.9365 218.375 49.8276 218.203 49.7555C218.031 49.6833 217.845 49.6499 217.658 49.6575C217.472 49.6505 217.288 49.6843 217.118 49.7564C216.948 49.8286 216.796 49.9372 216.674 50.0743C216.425 50.3483 216.301 50.7625 216.301 51.3169C216.301 51.8714 216.423 52.2888 216.667 52.5692C216.789 52.7105 216.942 52.8223 217.116 52.8959C217.289 52.9695 217.477 53.003 217.666 52.9937H217.658Z" fill="#151515"/>
<path d="M11.1789 44.9411C11.0967 42.8941 12.6737 41.7964 13.3903 44.8054C14.1069 47.8145 15.0803 54.5287 15.0803 54.5287C15.0803 54.5287 11.297 53.866 11.3381 53.5973C11.3792 53.3286 11.1789 44.9411 11.1789 44.9411Z" fill="#00578A"/>
<path d="M7.5428 40.0183C7.44217 37.491 9.39804 36.1471 10.2857 39.85C11.1733 43.5529 12.3861 51.8359 12.3861 51.8359C12.3861 51.8359 7.68987 51.0199 7.74148 50.6883C7.79308 50.3568 7.5428 40.0183 7.5428 40.0183Z" fill="#007D99"/>
<path d="M3.88815 36.3913C3.77708 33.5803 5.90761 32.0802 6.8719 36.2048C7.83619 40.3293 9.15641 49.5471 9.15641 49.5471C9.15641 49.5471 3.0425 43.1583 3.09803 42.7954C3.15357 42.4325 3.88815 36.3913 3.88815 36.3913Z" fill="#01A6A0"/>
<path d="M28.5765 73.1089C27.7136 59.5526 13.6377 59.4668 7.59469 54.6587C1.55169 49.8507 0.224122 37.5779 0.596863 34.8243C0.969603 32.0707 2.43248 30.7105 3.64772 34.5564C4.86295 38.4023 5.99904 45.3285 10.5843 48.5288C15.1695 51.729 23.7607 52.1501 18.8714 48.6155C12.4888 44.0014 13.5941 39.5417 15.1101 38.609C16.2695 37.8959 18.9837 42.8887 22.7647 44.9278C26.5457 46.9669 32.2024 48.5709 34.8193 54.923C37.7941 62.1439 28.5765 73.1089 28.5765 73.1089Z" fill="#00C6BF"/>
<path d="M57.2616 6.02657C53.0957 3.18106 46.1738 1.55289 39.3819 5.92452C36.6284 8.548 34.3134 12.1029 32.7531 16.7196C32.7531 16.7196 24.768 7.92777 11.9924 12.723C-0.783225 17.5183 0.00966736 31.3707 0.00966736 31.3707C0.00966736 31.3707 3.68607 20.0908 15.9798 19.3763C28.2736 18.6617 34.6748 30.5144 34.6748 30.5144C34.6748 30.5144 36.2357 18.5059 47.3848 15.6477C57.667 13.0216 63.8547 21.104 61.2542 31.1641C65.6852 20.9253 63.8827 10.5462 57.2616 6.02657Z" fill="#00578A"/>
<path d="M52.2383 48.9838C52.2383 48.9838 41.7129 36.4878 23.1562 43.1605C23.1562 43.1605 32.6394 42.9594 36.9585 53.7894C39.6462 60.5283 33.1234 70.4161 33.1234 70.4161C33.1234 70.4161 44.5923 60.9895 52.2383 48.9838Z" fill="#00578A"/>
<path d="M71.3442 8.42509C65.0524 -0.83138 49.3254 -3.57641 39.3519 5.89651C46.1489 1.53438 53.076 3.15902 57.245 5.99835C63.8787 10.5082 65.6647 20.8545 61.2508 31.0863C60.9792 32.1239 60.6312 33.1402 60.2098 34.1268C55.9591 44.1294 50.8869 50.4956 50.8869 50.4956C43.4648 61.7001 32.8516 70.5508 32.8516 70.5508C73.9601 53.3264 82.1291 24.305 71.3442 8.42509Z" fill="#00C6BF"/>
<path style="mix-blend-mode:multiply" opacity="0.29" d="M56.6432 16.5774C62.149 19.9568 62.2495 26.7863 61.136 31.1015C65.5441 20.8723 63.7468 10.5285 57.1448 6.0198C52.9908 3.18118 46.0888 1.55696 39.3164 5.91799C44.7872 2.73314 57.5228 0.146558 56.6432 16.5774Z" fill="#00578A"/>
<path style="mix-blend-mode:multiply" opacity="0.29" d="M48.4875 45.6426C46.2541 53.6628 37.1416 66.439 33.1211 70.4161C33.1211 70.4161 42.8591 62.485 52.2398 48.7616C51.0784 47.6922 49.8276 46.5337 48.4875 45.6426Z" fill="#00578A"/>
</svg>
