<svg width="221" height="74" viewBox="0 0 221 74" fill="none" xmlns="http://www.w3.org/2000/svg">
<path d="M207.935 20.5996V35.4878L186.383 35.4917V20.5996H179.84V42.72H180.603C188.383 42.7162 196.162 42.7085 203.941 42.6969C205.453 42.6949 206.965 42.6904 208.477 42.6859C210.527 42.6798 212.577 42.6737 214.628 42.6739V45.2385H220.501V35.4272H214.69C214.606 35.2976 214.606 35.0651 214.606 34.6479V21.48C214.606 21.2676 214.593 21.0533 214.58 20.8504C214.575 20.7644 214.57 20.6805 214.566 20.5996H207.935Z" fill="#00578A"/>
<path d="M132.182 29.3056V42.6516H125.578V20.6069C127.313 20.6069 129.024 20.6069 130.733 20.6165C130.971 20.6531 131.201 20.7331 131.41 20.8528C137.304 23.3592 143.195 25.8726 149.081 28.3931C149.316 28.5044 149.574 28.56 149.834 28.5557C150.094 28.5514 150.35 28.4872 150.581 28.3682C156.283 25.8438 161.993 23.3368 167.71 20.847C168.062 20.6978 168.439 20.6176 168.821 20.6107C170.365 20.5857 171.908 20.6107 173.51 20.6107V42.6804H166.939V29.3787C166.58 29.5227 166.337 29.6111 166.104 29.7149C160.954 31.9946 155.806 34.2794 150.662 36.5693C150.433 36.6897 150.179 36.7552 149.921 36.7605C149.662 36.7658 149.406 36.711 149.173 36.6001C143.811 34.2666 138.44 31.9497 133.062 29.6495C132.802 29.5285 132.533 29.4401 132.182 29.3056Z" fill="#00578A"/>
<path d="M84.6484 20.5996H119.503V21.6744C119.503 23.3924 119.467 25.1104 119.519 26.8285C119.541 27.552 119.287 27.7047 118.608 27.7028C109.839 27.6824 101.069 27.6779 92.2994 27.6894H91.2476V42.4111H84.6484V20.5996Z" fill="#00578A"/>
<path d="M84.5156 53.5862V49.1431H87.747V49.7882H85.3382V53.5862H84.5156Z" fill="#151515"/>
<path d="M90.5771 53.5856C90.1792 53.5953 89.7859 53.4998 89.4381 53.3088C89.1162 53.1227 88.8561 52.848 88.6897 52.5184C88.5038 52.1398 88.4123 51.7228 88.4228 51.3022C88.4113 50.8785 88.5028 50.4582 88.6897 50.0765C88.8561 49.7469 89.1162 49.4723 89.4381 49.2862C89.7856 49.0943 90.1791 48.9987 90.5771 49.0094C90.9762 48.9994 91.3708 49.095 91.7199 49.2862C92.0427 49.4707 92.3025 49.7458 92.4664 50.0765C92.6502 50.4557 92.7403 50.8725 92.7294 51.2927C92.7408 51.716 92.6507 52.136 92.4664 52.5184C92.3025 52.8491 92.0427 53.1243 91.7199 53.3088C91.3704 53.499 90.9761 53.5945 90.5771 53.5856ZM90.5771 52.9517C90.7599 52.9583 90.9418 52.9239 91.1093 52.8512C91.2767 52.7784 91.4253 52.6692 91.544 52.5317C91.7876 52.2492 91.9094 51.8362 91.9094 51.2927C91.9094 50.7492 91.7876 50.3394 91.544 50.0632C91.424 49.9278 91.275 49.8204 91.1077 49.7491C90.9405 49.6777 90.7592 49.6442 90.5771 49.6508C90.3949 49.6439 90.2136 49.6773 90.0462 49.7487C89.8789 49.82 89.7299 49.9275 89.6102 50.0632C89.3704 50.3381 89.2505 50.7479 89.2505 51.2927C89.2505 51.8374 89.3704 52.2505 89.6102 52.5317C89.7286 52.6694 89.8772 52.7788 90.0447 52.8515C90.2122 52.9243 90.3942 52.9586 90.5771 52.9517Z" fill="#151515"/>
<path d="M94.0144 55.4712V50.1457C94.0144 49.974 94.0144 49.7984 93.9946 49.6209C93.9749 49.4434 93.9651 49.2658 93.9414 49.0883H94.7301L94.8287 50.1187H94.7301C94.813 49.7866 95.0197 49.4968 95.3097 49.3063C95.6237 49.1028 95.9941 48.9991 96.3705 49.0092C96.7436 49.0011 97.1115 49.0968 97.4312 49.2851C97.7406 49.4758 97.9855 49.7517 98.1351 50.0781C98.3096 50.4683 98.3944 50.8912 98.3836 51.3169C98.3943 51.7439 98.3095 52.168 98.1351 52.5595C97.9868 52.8883 97.7417 53.1664 97.4312 53.3583C97.1115 53.5467 96.7436 53.6424 96.3705 53.6343C95.9986 53.6429 95.633 53.5391 95.3235 53.3371C95.0361 53.1451 94.8267 52.8603 94.732 52.5325H94.8306V55.4712H94.0144ZM96.1832 52.9937C96.3714 53.0012 96.559 52.9669 96.7318 52.8934C96.9045 52.8199 97.0581 52.7091 97.1808 52.5692C97.428 52.2836 97.5515 51.8662 97.5515 51.3169C97.5515 50.7677 97.428 50.3535 97.1808 50.0743C97.0568 49.9365 96.9028 49.8276 96.7302 49.7555C96.5576 49.6833 96.3707 49.6499 96.1832 49.6575C95.9975 49.6505 95.8126 49.6843 95.642 49.7564C95.4714 49.8286 95.3194 49.9372 95.1974 50.0743C94.9529 50.3522 94.8306 50.7664 94.8306 51.3169C94.8306 51.8675 94.9529 52.2849 95.1974 52.5692C95.319 52.7094 95.4717 52.8206 95.6439 52.8941C95.8162 52.9677 96.0033 53.0018 96.1911 52.9937H96.1832Z" fill="#151515"/>
<path d="M101.478 53.5856C101.08 53.5951 100.686 53.4995 100.339 53.3088C100.018 53.1218 99.7586 52.8473 99.5921 52.5184C99.4062 52.1398 99.3147 51.7228 99.3252 51.3022C99.3136 50.8785 99.4052 50.4582 99.5921 50.0765C99.7586 49.7476 100.018 49.4731 100.339 49.2861C100.686 49.0945 101.08 48.9989 101.478 49.0093C101.877 48.9992 102.271 49.0947 102.62 49.2861C102.944 49.4706 103.204 49.7457 103.369 50.0765C103.552 50.4558 103.642 50.8725 103.632 51.2927C103.642 51.7159 103.552 52.1357 103.369 52.5184C103.204 52.8492 102.944 53.1243 102.62 53.3088C102.271 53.4993 101.877 53.5949 101.478 53.5856ZM101.478 52.9518C101.66 52.9583 101.842 52.9239 102.01 52.8512C102.177 52.7784 102.326 52.6692 102.444 52.5318C102.687 52.2492 102.808 51.8362 102.808 51.2927C102.808 50.7492 102.687 50.3394 102.444 50.0632C102.324 49.9278 102.175 49.8206 102.008 49.7493C101.841 49.6779 101.66 49.6443 101.478 49.6508C101.295 49.6437 101.114 49.6771 100.947 49.7485C100.779 49.8198 100.63 49.9274 100.511 50.0632C100.27 50.3381 100.149 50.7479 100.149 51.2927C100.149 51.8374 100.27 52.2505 100.511 52.5318C100.629 52.6696 100.778 52.779 100.945 52.8518C101.113 52.9246 101.295 52.9587 101.478 52.9518Z" fill="#151515"/>
<path d="M104.578 54.6633V52.9117H105.066C105.277 52.592 105.426 52.2374 105.507 51.8653C105.605 51.3944 105.65 50.9146 105.644 50.434V49.1431H108.849V52.9117H109.56V54.6633H108.867V53.5259H105.271V54.6633H104.578ZM105.831 52.9192H108.095V49.7573H106.358V50.5781C106.359 51.0099 106.314 51.4406 106.225 51.8634C106.148 52.2343 106.012 52.5907 105.821 52.9192H105.831Z" fill="#151515"/>
<path d="M112.595 53.5855C112.183 53.5956 111.777 53.5001 111.416 53.3087C111.083 53.1221 110.814 52.8437 110.643 52.5087C110.45 52.1219 110.356 51.6956 110.368 51.2658C110.356 50.8442 110.451 50.4261 110.647 50.0497C110.826 49.7228 111.099 49.4539 111.433 49.2764C111.792 49.0921 112.193 49.0001 112.599 49.0091C112.891 49.0084 113.182 49.0575 113.457 49.1543C113.714 49.2385 113.947 49.3812 114.135 49.5704L113.856 50.1337C113.691 49.9748 113.493 49.8507 113.276 49.769C113.078 49.6927 112.867 49.6526 112.654 49.6506C112.458 49.6408 112.262 49.673 112.081 49.7449C111.9 49.8169 111.737 49.9268 111.604 50.0668C111.351 50.3456 111.225 50.7484 111.225 51.2754C111.195 51.7162 111.329 52.1529 111.604 52.5049C111.735 52.6486 111.897 52.7618 112.078 52.8362C112.26 52.9106 112.457 52.9442 112.654 52.9345C112.864 52.9321 113.072 52.8934 113.269 52.8199C113.488 52.7404 113.689 52.6182 113.858 52.461L114.137 53.0147C113.945 53.2086 113.708 53.3546 113.445 53.4404C113.172 53.5357 112.885 53.5848 112.595 53.5855Z" fill="#151515"/>
<path d="M115.215 53.5862V49.1431H116.015V50.9806H116.832L118.279 49.1431H119.165L117.484 51.3013L117.271 51.0555C117.427 51.068 117.579 51.1111 117.718 51.1822C117.854 51.2605 117.976 51.3604 118.079 51.4779C118.22 51.6411 118.347 51.8158 118.458 52.0001L119.389 53.5804H118.512L117.698 52.2114C117.626 52.0763 117.536 51.9516 117.43 51.8408C117.347 51.7542 117.245 51.6884 117.131 51.6488C116.996 51.6108 116.855 51.5934 116.715 51.597H116.015V53.5747L115.215 53.5862Z" fill="#151515"/>
<path d="M122.213 53.5856C121.815 53.5953 121.421 53.4998 121.073 53.3088C120.751 53.1227 120.491 52.848 120.325 52.5184C120.139 52.1396 120.049 51.7227 120.06 51.3022C120.048 50.8787 120.138 50.4583 120.325 50.0765C120.491 49.7469 120.751 49.4723 121.073 49.2862C121.421 49.0943 121.815 48.9987 122.213 49.0094C122.612 48.9992 123.007 49.0948 123.356 49.2862C123.679 49.4707 123.939 49.7458 124.103 50.0765C124.287 50.4557 124.377 50.8725 124.366 51.2927C124.377 51.716 124.287 52.136 124.103 52.5184C123.939 52.8491 123.679 53.1243 123.356 53.3088C123.007 53.4993 122.612 53.5948 122.213 53.5856ZM122.213 52.9517C122.396 52.9583 122.578 52.9239 122.745 52.8512C122.913 52.7784 123.061 52.6692 123.18 52.5317C123.424 52.2492 123.546 51.8362 123.546 51.2927C123.546 50.7492 123.424 50.3394 123.18 50.0632C123.06 49.9278 122.911 49.8204 122.744 49.7491C122.576 49.6777 122.395 49.6442 122.213 49.6508C122.031 49.6439 121.849 49.6773 121.682 49.7487C121.514 49.82 121.365 49.9275 121.246 50.0632C121.006 50.3381 120.886 50.7479 120.886 51.2927C120.886 51.8374 121.006 52.2505 121.246 52.5317C121.364 52.6694 121.513 52.7788 121.68 52.8515C121.848 52.9243 122.03 52.9586 122.213 52.9517Z" fill="#151515"/>
<path d="M125.582 53.5766V49.123H126.338V52.826H126.09L128.931 49.1327H129.621V53.5862H128.866V49.8852H129.121L126.272 53.5862L125.582 53.5766ZM127.602 48.7169C127.356 48.7197 127.111 48.6746 126.884 48.5841C126.669 48.4988 126.478 48.3671 126.324 48.1992C126.16 48.0164 126.04 47.8 125.974 47.566L126.446 47.3967C126.528 47.6435 126.683 47.8612 126.891 48.0222C127.101 48.158 127.35 48.2254 127.602 48.2146C127.855 48.2223 128.106 48.1553 128.32 48.0222C128.538 47.8587 128.708 47.6415 128.812 47.3928L129.257 47.5526C129.142 47.9065 128.91 48.214 128.599 48.4282C128.303 48.6189 127.956 48.7194 127.602 48.7169Z" fill="#151515"/>
<path d="M133.523 53.5862V49.1431H134.205L135.878 52.0501L137.558 49.1431H138.236V53.5862H137.513V50.0455H137.709L136.08 52.8719H135.675L134.048 50.0359H134.245V53.5862H133.523Z" fill="#151515"/>
<path d="M141.743 53.5863C141.035 53.5863 140.475 53.3838 140.064 52.9791C139.654 52.5762 139.45 52.0244 139.45 51.3103C139.439 50.8892 139.531 50.4718 139.72 50.0941C139.888 49.7632 140.148 49.4865 140.469 49.296C140.806 49.1003 141.192 49.0011 141.583 49.0096C141.946 48.9975 142.306 49.0875 142.619 49.2693C142.905 49.4424 143.131 49.6983 143.266 50.0025C143.422 50.3568 143.497 50.7406 143.488 51.127V51.3905H140.078V50.9151H142.939L142.789 51.0297C142.812 50.6509 142.704 50.2755 142.482 49.9662C142.373 49.8374 142.235 49.7357 142.079 49.6694C141.923 49.603 141.753 49.5739 141.583 49.5843C141.393 49.5743 141.203 49.6091 141.029 49.6861C140.855 49.7631 140.702 49.8801 140.582 50.0273C140.332 50.3788 140.208 50.8041 140.232 51.234V51.3141C140.232 51.8526 140.367 52.2593 140.636 52.5342C140.784 52.6762 140.96 52.7862 141.153 52.8572C141.346 52.9282 141.551 52.9586 141.757 52.9466C142.009 52.9492 142.26 52.9112 142.5 52.834C142.744 52.7494 142.969 52.6198 143.164 52.4521L143.43 53.0058C143.213 53.1963 142.957 53.3394 142.681 53.4259C142.379 53.5309 142.063 53.5851 141.743 53.5863Z" fill="#151515"/>
<path d="M144.297 54.6633V52.9117H144.797C145.013 52.592 145.166 52.2374 145.249 51.8653C145.349 51.3944 145.396 50.9146 145.389 50.434V49.1431H148.685V52.9117H149.413V54.6633H148.685V53.5259H145.017V54.6633H144.297ZM145.581 52.9192H147.894V49.7573H146.113V50.5781C146.114 51.0099 146.068 51.4406 145.977 51.8634C145.904 52.2333 145.771 52.5897 145.581 52.9192Z" fill="#151515"/>
<path d="M150.355 53.5766V49.1431H151.111V52.8294H150.866L153.704 49.1527H154.395V53.5862H153.639V49.9018H153.894L151.048 53.5862L150.355 53.5766Z" fill="#151515"/>
<path d="M159.763 54.7979V53.6336H155.875V49.1431H156.68V53.001H158.933V49.1431H159.737V53.001H160.453V54.7941L159.763 54.7979Z" fill="#151515"/>
<path d="M161.527 53.5766V49.1431H162.283V52.8294H162.037L164.875 49.1527H165.567V53.5862H164.811V49.9018H165.066L162.219 53.5862L161.527 53.5766Z" fill="#151515"/>
<path d="M167.051 53.5862V49.1431H167.87V50.9806H170.276V49.1431H171.09V53.5862H170.276V51.6161H167.87V53.5862H167.051Z" fill="#151515"/>
<path d="M174.534 53.5855C174.122 53.5956 173.714 53.5001 173.353 53.3087C173.019 53.1226 172.749 52.8441 172.579 52.5087C172.385 52.1221 172.29 51.6957 172.302 51.2658C172.29 50.844 172.386 50.426 172.583 50.0497C172.76 49.7247 173.03 49.4562 173.361 49.2764C173.72 49.0921 174.123 49.0001 174.53 49.0091C174.823 49.0084 175.114 49.0575 175.39 49.1543C175.647 49.2385 175.88 49.3812 176.069 49.5704L175.787 50.1337C175.622 49.9753 175.425 49.8512 175.209 49.769C175.009 49.6925 174.797 49.6524 174.583 49.6506C174.387 49.6411 174.192 49.6734 174.01 49.7453C173.829 49.8173 173.666 49.927 173.534 50.0668C173.279 50.3456 173.153 50.7484 173.154 51.2754C173.124 51.7162 173.259 52.1529 173.534 52.5049C173.664 52.6484 173.826 52.7616 174.008 52.836C174.189 52.9104 174.386 52.944 174.583 52.9345C174.794 52.9326 175.002 52.8938 175.199 52.8199C175.419 52.7409 175.62 52.6187 175.789 52.461L176.071 53.0147C175.878 53.2086 175.641 53.3546 175.378 53.4404C175.107 53.5345 174.821 53.5836 174.534 53.5855Z" fill="#151515"/>
<path d="M177.148 53.5862V49.1431H177.963V50.9806H178.777L180.224 49.1431H181.109L179.42 51.3013L179.204 51.0555C179.36 51.0676 179.512 51.1107 179.651 51.1822C179.788 51.2599 179.911 51.3599 180.015 51.4779C180.154 51.6421 180.281 51.8167 180.393 52.0001L181.322 53.5804H180.448L179.634 52.2114C179.562 52.0763 179.472 51.9516 179.366 51.8408C179.283 51.7542 179.18 51.6884 179.066 51.6488C178.931 51.611 178.791 51.5935 178.65 51.597H177.963V53.5747L177.148 53.5862Z" fill="#151515"/>
<path d="M182.129 53.5766V49.1431H182.884V52.8294H182.639L185.476 49.1527H186.168V53.5862H185.423V49.9018H185.678L182.831 53.5862L182.129 53.5766Z" fill="#151515"/>
<path d="M187.648 53.5766V49.1286H188.403V52.8269H188.162L190.996 49.1382H191.688V53.5862H190.927V49.8898H191.182L188.338 53.5862L187.648 53.5766ZM189.665 48.723C189.421 48.7276 189.179 48.6851 188.952 48.5981C188.738 48.5123 188.547 48.3809 188.393 48.2136C188.231 48.0301 188.111 47.8143 188.043 47.5812L188.516 47.4121C188.598 47.6519 188.749 47.8636 188.952 48.0214C189.16 48.1577 189.408 48.2251 189.659 48.2136C189.913 48.2216 190.164 48.1546 190.378 48.0214C190.597 47.8586 190.766 47.6414 190.868 47.3928L191.314 47.5524C191.198 47.9061 190.967 48.2133 190.655 48.427C190.362 48.619 190.018 48.722 189.665 48.723Z" fill="#151515"/>
<path d="M199.483 54.7979V53.6336H195.594V49.1431H196.399V53.001H198.651V49.1431H199.456V53.001H200.171V54.7941L199.483 54.7979Z" fill="#151515"/>
<path d="M203.272 53.5863C202.563 53.5863 202.004 53.3841 201.594 52.9798C201.182 52.5775 200.978 52.0264 200.978 51.3132C200.965 50.8911 201.057 50.4723 201.243 50.0927C201.413 49.7627 201.672 49.4865 201.993 49.2957C202.331 49.0998 202.718 49.0008 203.11 49.0096C203.473 48.9975 203.832 49.0874 204.146 49.2689C204.432 49.443 204.657 49.6982 204.793 50.0012C204.948 50.3554 205.024 50.7385 205.015 51.1244V51.3876H201.608V50.9127H204.468L204.318 51.0271C204.341 50.6488 204.233 50.274 204.011 49.965C203.902 49.8363 203.764 49.7348 203.608 49.6686C203.453 49.6023 203.283 49.5732 203.114 49.5836C202.923 49.5734 202.733 49.6082 202.559 49.6851C202.385 49.762 202.232 49.8789 202.112 50.026C201.859 50.3759 201.734 50.8012 201.758 51.2312V51.3113C201.758 51.849 201.891 52.2648 202.16 52.5298C202.308 52.6714 202.484 52.781 202.677 52.8519C202.87 52.9228 203.076 52.9534 203.281 52.9417C203.534 52.9444 203.785 52.9065 204.025 52.8292C204.269 52.7448 204.494 52.6154 204.689 52.4478L204.955 53.0008C204.738 53.1907 204.484 53.3336 204.208 53.4203C203.907 53.5268 203.591 53.5829 203.272 53.5863Z" fill="#151515"/>
<path d="M206.23 53.5862V49.1431H207.039V50.9806H209.453V49.1431H210.27V53.5862H209.453V51.6161H207.039V53.5862H206.23Z" fill="#151515"/>
<path d="M212.697 53.5862V49.7882H211.078V49.1431H215.117V49.7882H213.501V53.5862H212.697Z" fill="#151515"/>
<path d="M215.995 55.4712V50.1457C215.995 49.974 215.995 49.7984 215.977 49.6209C215.959 49.4434 215.945 49.2658 215.922 49.0883H216.718L216.817 50.1187H216.718C216.801 49.7866 217.007 49.4969 217.296 49.3063C217.61 49.1028 217.98 48.9991 218.356 49.0092C218.728 49.0011 219.095 49.0968 219.414 49.2851C219.722 49.4759 219.966 49.7518 220.114 50.0781C220.29 50.4678 220.375 50.891 220.364 51.3169C220.375 51.7442 220.29 52.1685 220.114 52.5595C219.967 52.8881 219.723 53.1662 219.414 53.3583C219.095 53.5467 218.728 53.6424 218.356 53.6343C217.985 53.6432 217.619 53.5394 217.31 53.3371C217.023 53.1451 216.815 52.8603 216.72 52.5325H216.819V55.4712H215.995ZM218.158 52.9937C218.345 53.0012 218.532 52.9669 218.705 52.8934C218.877 52.8199 219.03 52.7091 219.153 52.5692C219.4 52.2836 219.522 51.8668 219.522 51.3169C219.522 50.767 219.4 50.3522 219.153 50.0743C219.029 49.9365 218.875 49.8276 218.703 49.7555C218.531 49.6833 218.345 49.6499 218.158 49.6575C217.972 49.6505 217.788 49.6843 217.618 49.7564C217.448 49.8286 217.296 49.9372 217.174 50.0743C216.925 50.3483 216.801 50.7625 216.801 51.3169C216.801 51.8714 216.923 52.2888 217.167 52.5692C217.289 52.7105 217.442 52.8223 217.616 52.8959C217.789 52.9695 217.977 53.003 218.166 52.9937H218.158Z" fill="#151515"/>
<path d="M11.6789 44.9411C11.5967 42.8941 13.1737 41.7964 13.8903 44.8054C14.6069 47.8145 15.5803 54.5287 15.5803 54.5287C15.5803 54.5287 11.797 53.866 11.8381 53.5973C11.8792 53.3286 11.6789 44.9411 11.6789 44.9411Z" fill="#00578A"/>
<path d="M8.0428 40.0183C7.94217 37.491 9.89804 36.1471 10.7857 39.85C11.6733 43.5529 12.8861 51.8359 12.8861 51.8359C12.8861 51.8359 8.18987 51.0199 8.24148 50.6883C8.29308 50.3568 8.0428 40.0183 8.0428 40.0183Z" fill="#007D99"/>
<path d="M4.38815 36.3913C4.27708 33.5803 6.40761 32.0802 7.3719 36.2048C8.33619 40.3293 9.65641 49.5471 9.65641 49.5471C9.65641 49.5471 3.5425 43.1583 3.59803 42.7954C3.65357 42.4325 4.38815 36.3913 4.38815 36.3913Z" fill="#01A6A0"/>
<path d="M29.0765 73.1089C28.2136 59.5526 14.1377 59.4668 8.09469 54.6587C2.05169 49.8507 0.724122 37.5779 1.09686 34.8243C1.4696 32.0707 2.93248 30.7105 4.14772 34.5564C5.36295 38.4023 6.49904 45.3285 11.0843 48.5288C15.6695 51.729 24.2607 52.1501 19.3714 48.6155C12.9888 44.0014 14.0941 39.5417 15.6101 38.609C16.7695 37.8959 19.4837 42.8887 23.2647 44.9278C27.0457 46.9669 32.7024 48.5709 35.3193 54.923C38.2941 62.1439 29.0765 73.1089 29.0765 73.1089Z" fill="#00C6BF"/>
<path d="M57.7616 6.02657C53.5957 3.18106 46.6738 1.55289 39.8819 5.92452C37.1284 8.548 34.8134 12.1029 33.2531 16.7196C33.2531 16.7196 25.268 7.92777 12.4924 12.723C-0.283225 17.5183 0.509667 31.3707 0.509667 31.3707C0.509667 31.3707 4.18607 20.0908 16.4798 19.3763C28.7736 18.6617 35.1748 30.5144 35.1748 30.5144C35.1748 30.5144 36.7357 18.5059 47.8848 15.6477C58.167 13.0216 64.3547 21.104 61.7542 31.1641C66.1852 20.9253 64.3827 10.5462 57.7616 6.02657Z" fill="#00578A"/>
<path d="M52.7383 48.9838C52.7383 48.9838 42.2129 36.4878 23.6562 43.1605C23.6562 43.1605 33.1394 42.9594 37.4585 53.7894C40.1462 60.5283 33.6234 70.4161 33.6234 70.4161C33.6234 70.4161 45.0923 60.9895 52.7383 48.9838Z" fill="#00578A"/>
<path d="M71.8442 8.42509C65.5524 -0.83138 49.8254 -3.57641 39.8519 5.89651C46.6489 1.53438 53.576 3.15902 57.745 5.99835C64.3787 10.5082 66.1647 20.8545 61.7508 31.0863C61.4792 32.1239 61.1312 33.1402 60.7098 34.1268C56.4591 44.1294 51.3869 50.4956 51.3869 50.4956C43.9648 61.7001 33.3516 70.5508 33.3516 70.5508C74.4601 53.3264 82.6291 24.305 71.8442 8.42509Z" fill="#00C6BF"/>
<path style="mix-blend-mode:multiply" opacity="0.29" d="M57.1432 16.5774C62.649 19.9568 62.7495 26.7863 61.636 31.1015C66.0441 20.8723 64.2468 10.5285 57.6448 6.0198C53.4908 3.18118 46.5888 1.55696 39.8164 5.91799C45.2872 2.73314 58.0228 0.146558 57.1432 16.5774Z" fill="#00578A"/>
<path style="mix-blend-mode:multiply" opacity="0.29" d="M48.9875 45.6426C46.7541 53.6628 37.6416 66.439 33.6211 70.4161C33.6211 70.4161 43.3591 62.485 52.7398 48.7616C51.5784 47.6922 50.3276 46.5337 48.9875 45.6426Z" fill="#00578A"/>
</svg>
