<svg width="220" height="74" viewBox="0 0 220 74" fill="none" xmlns="http://www.w3.org/2000/svg">
<path d="M207.435 20.5996V35.4878L185.883 35.4917V20.5996H179.34V42.72H180.103C187.883 42.7162 195.662 42.7085 203.441 42.6969C204.953 42.6949 206.465 42.6904 207.977 42.6859C210.027 42.6798 212.077 42.6737 214.128 42.6739V45.2385H220.001V35.4272H214.19C214.106 35.2976 214.106 35.0651 214.106 34.6479V21.48C214.106 21.2676 214.093 21.0533 214.08 20.8504C214.075 20.7644 214.07 20.6805 214.066 20.5996H207.435Z" fill="#00578A"/>
<path d="M131.682 29.3056V42.6516H125.078V20.6069C126.813 20.6069 128.524 20.6069 130.233 20.6165C130.471 20.6531 130.701 20.7331 130.91 20.8528C136.804 23.3592 142.695 25.8726 148.581 28.3931C148.816 28.5044 149.074 28.56 149.334 28.5557C149.594 28.5514 149.85 28.4872 150.081 28.3682C155.783 25.8438 161.493 23.3368 167.21 20.847C167.562 20.6978 167.939 20.6176 168.321 20.6107C169.865 20.5857 171.408 20.6107 173.01 20.6107V42.6804H166.439V29.3787C166.08 29.5227 165.837 29.6111 165.604 29.7149C160.454 31.9946 155.306 34.2794 150.162 36.5693C149.933 36.6897 149.679 36.7552 149.421 36.7605C149.162 36.7658 148.906 36.711 148.673 36.6001C143.311 34.2666 137.94 31.9497 132.562 29.6495C132.302 29.5285 132.033 29.4401 131.682 29.3056Z" fill="#00578A"/>
<path d="M84.1484 20.5996H119.003V21.6744C119.003 23.3924 118.967 25.1104 119.019 26.8285C119.041 27.552 118.787 27.7047 118.108 27.7028C109.339 27.6824 100.569 27.6779 91.7994 27.6894H90.7476V42.4111H84.1484V20.5996Z" fill="#00578A"/>
<path d="M84.0156 53.5862V49.1431H87.247V49.7882H84.8382V53.5862H84.0156Z" fill="#151515"/>
<path d="M90.0751 53.5856C89.6772 53.5953 89.284 53.4998 88.9361 53.3088C88.6142 53.1227 88.3541 52.848 88.1878 52.5184C88.0019 52.1398 87.9104 51.7228 87.9209 51.3022C87.9093 50.8785 88.0009 50.4582 88.1878 50.0765C88.3541 49.7469 88.6142 49.4723 88.9361 49.2862C89.2836 49.0943 89.6771 48.9987 90.0751 49.0094C90.4743 48.9994 90.8688 49.095 91.218 49.2862C91.5407 49.4707 91.8005 49.7458 91.9644 50.0765C92.1483 50.4557 92.2384 50.8725 92.2274 51.2927C92.2388 51.716 92.1487 52.136 91.9644 52.5184C91.8005 52.8491 91.5407 53.1243 91.218 53.3088C90.8685 53.499 90.4741 53.5945 90.0751 53.5856ZM90.0751 52.9517C90.2579 52.9583 90.4399 52.9239 90.6073 52.8512C90.7748 52.7784 90.9234 52.6692 91.042 52.5317C91.2857 52.2492 91.4075 51.8362 91.4075 51.2927C91.4075 50.7492 91.2857 50.3394 91.042 50.0632C90.9221 49.9278 90.7731 49.8204 90.6058 49.7491C90.4385 49.6777 90.2572 49.6442 90.0751 49.6508C89.893 49.6439 89.7116 49.6773 89.5443 49.7487C89.377 49.82 89.228 49.9275 89.1082 50.0632C88.8684 50.3381 88.7485 50.7479 88.7485 51.2927C88.7485 51.8374 88.8684 52.2505 89.1082 52.5317C89.2267 52.6694 89.3752 52.7788 89.5427 52.8515C89.7102 52.9243 89.8923 52.9586 90.0751 52.9517Z" fill="#151515"/>
<path d="M93.5124 55.4712V50.1457C93.5124 49.974 93.5124 49.7984 93.4927 49.6209C93.473 49.4434 93.4631 49.2658 93.4395 49.0883H94.2281L94.3267 50.1187H94.2281C94.311 49.7866 94.5178 49.4968 94.8078 49.3063C95.1217 49.1028 95.4921 48.9991 95.8685 49.0092C96.2417 49.0011 96.6095 49.0968 96.9293 49.2851C97.2386 49.4758 97.4835 49.7517 97.6332 50.0781C97.8077 50.4683 97.8925 50.8912 97.8816 51.3169C97.8923 51.7439 97.8075 52.168 97.6332 52.5595C97.4848 52.8883 97.2398 53.1664 96.9293 53.3583C96.6095 53.5467 96.2417 53.6424 95.8685 53.6343C95.4966 53.6429 95.1311 53.5391 94.8216 53.3371C94.5341 53.1451 94.3248 52.8603 94.2301 52.5325H94.3287V55.4712H93.5124ZM95.6812 52.9937C95.8695 53.0012 96.057 52.9669 96.2298 52.8934C96.4026 52.8199 96.5561 52.7091 96.6789 52.5692C96.926 52.2836 97.0496 51.8662 97.0496 51.3169C97.0496 50.7677 96.926 50.3535 96.6789 50.0743C96.5548 49.9365 96.4009 49.8276 96.2282 49.7555C96.0556 49.6833 95.8687 49.6499 95.6812 49.6575C95.4955 49.6505 95.3106 49.6843 95.14 49.7564C94.9694 49.8286 94.8175 49.9372 94.6954 50.0743C94.4509 50.3522 94.3287 50.7664 94.3287 51.3169C94.3287 51.8675 94.4509 52.2849 94.6954 52.5692C94.817 52.7094 94.9698 52.8206 95.142 52.8941C95.3142 52.9677 95.5014 53.0018 95.6891 52.9937H95.6812Z" fill="#151515"/>
<path d="M100.98 53.5856C100.582 53.5951 100.188 53.4995 99.8405 53.3088C99.5197 53.1218 99.2605 52.8473 99.094 52.5184C98.9081 52.1398 98.8166 51.7228 98.8271 51.3022C98.8156 50.8785 98.9071 50.4582 99.094 50.0765C99.2605 49.7476 99.5197 49.4731 99.8405 49.2861C100.188 49.0945 100.582 48.9989 100.98 49.0093C101.379 48.9992 101.773 49.0947 102.122 49.2861C102.446 49.4706 102.706 49.7457 102.871 50.0765C103.054 50.4558 103.144 50.8725 103.134 51.2927C103.144 51.7159 103.054 52.1357 102.871 52.5184C102.706 52.8492 102.446 53.1243 102.122 53.3088C101.773 53.4993 101.379 53.5949 100.98 53.5856ZM100.98 52.9518C101.162 52.9583 101.344 52.9239 101.512 52.8512C101.679 52.7784 101.828 52.6692 101.946 52.5318C102.189 52.2492 102.31 51.8362 102.31 51.2927C102.31 50.7492 102.189 50.3394 101.946 50.0632C101.826 49.9278 101.677 49.8206 101.51 49.7493C101.343 49.6779 101.162 49.6443 100.98 49.6508C100.797 49.6437 100.616 49.6771 100.449 49.7485C100.281 49.8198 100.132 49.9274 100.013 50.0632C99.7715 50.3381 99.651 50.7479 99.651 51.2927C99.651 51.8374 99.7715 52.2505 100.013 52.5318C100.131 52.6696 100.28 52.779 100.447 52.8518C100.615 52.9246 100.797 52.9587 100.98 52.9518Z" fill="#151515"/>
<path d="M104.078 54.6635V52.9119H104.566C104.777 52.5922 104.926 52.2377 105.007 51.8655C105.105 51.3947 105.15 50.9148 105.144 50.4343V49.1433H108.349V52.9119H109.06V54.6635H108.367V53.5261H104.771V54.6635H104.078ZM105.331 52.9195H107.595V49.7575H105.858V50.5784C105.859 51.0101 105.814 51.4409 105.725 51.8636C105.648 52.2345 105.512 52.591 105.321 52.9195H105.331Z" fill="#151515"/>
<path d="M112.095 53.5855C111.683 53.5956 111.277 53.5001 110.916 53.3087C110.583 53.1221 110.314 52.8437 110.143 52.5087C109.95 52.1219 109.856 51.6956 109.868 51.2658C109.856 50.8442 109.951 50.4261 110.147 50.0497C110.326 49.7228 110.599 49.4539 110.933 49.2764C111.292 49.0921 111.693 49.0001 112.099 49.0091C112.391 49.0084 112.682 49.0575 112.957 49.1543C113.214 49.2385 113.447 49.3812 113.635 49.5704L113.356 50.1337C113.191 49.9748 112.993 49.8507 112.776 49.769C112.578 49.6927 112.367 49.6526 112.154 49.6506C111.958 49.6408 111.762 49.673 111.581 49.7449C111.4 49.8169 111.237 49.9268 111.104 50.0668C110.851 50.3456 110.725 50.7484 110.725 51.2754C110.695 51.7162 110.829 52.1529 111.104 52.5049C111.235 52.6486 111.397 52.7618 111.578 52.8362C111.76 52.9106 111.957 52.9442 112.154 52.9345C112.364 52.9321 112.572 52.8934 112.769 52.8199C112.988 52.7404 113.189 52.6182 113.358 52.461L113.637 53.0147C113.445 53.2086 113.208 53.3546 112.945 53.4404C112.672 53.5357 112.385 53.5848 112.095 53.5855Z" fill="#151515"/>
<path d="M114.713 53.5864V49.1433H115.513V50.9809H116.33L117.777 49.1433H118.663L116.982 51.3015L116.769 51.0557C116.925 51.0683 117.077 51.1114 117.216 51.1824C117.352 51.2607 117.474 51.3606 117.577 51.4781C117.718 51.6414 117.845 51.8161 117.956 52.0004L118.887 53.5807H118.01L117.196 52.2116C117.124 52.0765 117.034 51.9519 116.928 51.8411C116.845 51.7544 116.743 51.6886 116.629 51.649C116.494 51.6111 116.353 51.5936 116.213 51.5972H115.513V53.5749L114.713 53.5864Z" fill="#151515"/>
<path d="M121.715 53.5856C121.317 53.5953 120.923 53.4998 120.575 53.3088C120.253 53.1227 119.993 52.848 119.827 52.5184C119.641 52.1396 119.55 51.7227 119.562 51.3022C119.549 50.8787 119.64 50.4583 119.827 50.0765C119.993 49.7469 120.253 49.4723 120.575 49.2862C120.923 49.0943 121.317 48.9987 121.715 49.0094C122.114 48.9992 122.509 49.0948 122.858 49.2862C123.181 49.4707 123.441 49.7458 123.605 50.0765C123.789 50.4557 123.879 50.8725 123.868 51.2927C123.879 51.716 123.789 52.136 123.605 52.5184C123.441 52.8491 123.181 53.1243 122.858 53.3088C122.509 53.4993 122.114 53.5948 121.715 53.5856ZM121.715 52.9517C121.898 52.9583 122.08 52.9239 122.247 52.8512C122.415 52.7784 122.563 52.6692 122.682 52.5317C122.926 52.2492 123.048 51.8362 123.048 51.2927C123.048 50.7492 122.926 50.3394 122.682 50.0632C122.562 49.9278 122.413 49.8204 122.246 49.7491C122.078 49.6777 121.897 49.6442 121.715 49.6508C121.533 49.6439 121.351 49.6773 121.184 49.7487C121.016 49.82 120.867 49.9275 120.748 50.0632C120.508 50.3381 120.388 50.7479 120.388 51.2927C120.388 51.8374 120.508 52.2505 120.748 52.5317C120.866 52.6694 121.015 52.7788 121.182 52.8515C121.35 52.9243 121.532 52.9586 121.715 52.9517Z" fill="#151515"/>
<path d="M125.08 53.5766V49.123H125.836V52.826H125.588L128.429 49.1327H129.119V53.5862H128.364V49.8852H128.619L125.77 53.5862L125.08 53.5766ZM127.1 48.7169C126.854 48.7197 126.609 48.6746 126.382 48.5841C126.167 48.4988 125.976 48.3671 125.822 48.1992C125.658 48.0164 125.538 47.8 125.472 47.566L125.944 47.3967C126.026 47.6435 126.181 47.8612 126.39 48.0222C126.599 48.158 126.848 48.2254 127.1 48.2146C127.353 48.2223 127.604 48.1553 127.818 48.0222C128.036 47.8587 128.206 47.6415 128.31 47.3928L128.755 47.5526C128.64 47.9065 128.408 48.214 128.097 48.4282C127.801 48.6189 127.454 48.7194 127.1 48.7169Z" fill="#151515"/>
<path d="M133.023 53.5862V49.1431H133.705L135.378 52.0501L137.058 49.1431H137.736V53.5862H137.013V50.0455H137.209L135.58 52.8719H135.175L133.548 50.0359H133.745V53.5862H133.023Z" fill="#151515"/>
<path d="M141.243 53.5863C140.535 53.5863 139.975 53.3838 139.564 52.9791C139.154 52.5762 138.95 52.0244 138.95 51.3103C138.939 50.8892 139.031 50.4718 139.22 50.0941C139.388 49.7632 139.648 49.4865 139.969 49.296C140.306 49.1003 140.692 49.0011 141.083 49.0096C141.446 48.9975 141.806 49.0875 142.119 49.2693C142.405 49.4424 142.631 49.6983 142.766 50.0025C142.922 50.3568 142.997 50.7406 142.988 51.127V51.3905H139.578V50.9151H142.439L142.289 51.0297C142.312 50.6509 142.204 50.2755 141.982 49.9662C141.873 49.8374 141.735 49.7357 141.579 49.6694C141.423 49.603 141.253 49.5739 141.083 49.5843C140.893 49.5743 140.703 49.6091 140.529 49.6861C140.355 49.7631 140.202 49.8801 140.082 50.0273C139.832 50.3788 139.708 50.8041 139.732 51.234V51.3141C139.732 51.8526 139.867 52.2593 140.136 52.5342C140.284 52.6762 140.46 52.7862 140.653 52.8572C140.846 52.9282 141.051 52.9586 141.257 52.9466C141.509 52.9492 141.76 52.9112 142 52.834C142.244 52.7494 142.469 52.6198 142.664 52.4521L142.93 53.0058C142.713 53.1963 142.457 53.3394 142.181 53.4259C141.879 53.5309 141.563 53.5851 141.243 53.5863Z" fill="#151515"/>
<path d="M143.795 54.6635V52.9119H144.295C144.511 52.5922 144.664 52.2377 144.747 51.8655C144.847 51.3947 144.894 50.9148 144.887 50.4343V49.1433H148.183V52.9119H148.911V54.6635H148.183V53.5261H144.515V54.6635H143.795ZM145.079 52.9195H147.392V49.7575H145.611V50.5784C145.612 51.0101 145.566 51.4409 145.475 51.8636C145.402 52.2335 145.269 52.5899 145.079 52.9195Z" fill="#151515"/>
<path d="M149.855 53.5768V49.1433H150.611V52.8296H150.366L153.204 49.1529H153.895V53.5864H153.139V49.902H153.394L150.548 53.5864L149.855 53.5768Z" fill="#151515"/>
<path d="M159.263 54.7981V53.6338H155.375V49.1433H156.18V53.0012H158.433V49.1433H159.237V53.0012H159.953V54.7943L159.263 54.7981Z" fill="#151515"/>
<path d="M161.029 53.5766V49.1431H161.785V52.8294H161.539L164.376 49.1527H165.068V53.5862H164.313V49.9018H164.568L161.721 53.5862L161.029 53.5766Z" fill="#151515"/>
<path d="M166.549 53.5864V49.1433H167.368V50.9809H169.774V49.1433H170.588V53.5864H169.774V51.6164H167.368V53.5864H166.549Z" fill="#151515"/>
<path d="M174.034 53.5855C173.622 53.5956 173.214 53.5001 172.853 53.3087C172.519 53.1226 172.249 52.8441 172.079 52.5087C171.885 52.1221 171.79 51.6957 171.802 51.2658C171.79 50.844 171.886 50.426 172.083 50.0497C172.26 49.7247 172.53 49.4562 172.861 49.2764C173.22 49.0921 173.623 49.0001 174.03 49.0091C174.323 49.0084 174.614 49.0575 174.89 49.1543C175.147 49.2385 175.38 49.3812 175.569 49.5704L175.287 50.1337C175.122 49.9753 174.925 49.8512 174.709 49.769C174.509 49.6925 174.297 49.6524 174.083 49.6506C173.887 49.6411 173.692 49.6734 173.51 49.7453C173.329 49.8173 173.166 49.927 173.034 50.0668C172.779 50.3456 172.653 50.7484 172.654 51.2754C172.624 51.7162 172.759 52.1529 173.034 52.5049C173.164 52.6484 173.326 52.7616 173.508 52.836C173.689 52.9104 173.886 52.944 174.083 52.9345C174.294 52.9326 174.502 52.8938 174.699 52.8199C174.919 52.7409 175.12 52.6187 175.289 52.461L175.571 53.0147C175.378 53.2086 175.141 53.3546 174.878 53.4404C174.607 53.5345 174.321 53.5836 174.034 53.5855Z" fill="#151515"/>
<path d="M176.646 53.5862V49.1431H177.461V50.9806H178.275L179.722 49.1431H180.607L178.918 51.3013L178.702 51.0555C178.858 51.0676 179.01 51.1107 179.149 51.1822C179.286 51.2599 179.409 51.3599 179.513 51.4779C179.652 51.6421 179.779 51.8167 179.891 52.0001L180.82 53.5804H179.946L179.132 52.2114C179.06 52.0763 178.97 51.9516 178.864 51.8408C178.781 51.7542 178.678 51.6884 178.564 51.6488C178.429 51.611 178.289 51.5935 178.149 51.597H177.461V53.5747L176.646 53.5862Z" fill="#151515"/>
<path d="M181.629 53.5766V49.1431H182.384V52.8294H182.139L184.976 49.1527H185.668V53.5862H184.923V49.9018H185.178L182.331 53.5862L181.629 53.5766Z" fill="#151515"/>
<path d="M187.148 53.5766V49.1286H187.903V52.8269H187.662L190.496 49.1382H191.188V53.5862H190.427V49.8898H190.682L187.838 53.5862L187.148 53.5766ZM189.165 48.723C188.921 48.7276 188.679 48.6851 188.452 48.5981C188.238 48.5123 188.047 48.3809 187.893 48.2136C187.731 48.0301 187.611 47.8143 187.543 47.5812L188.016 47.4121C188.098 47.6519 188.249 47.8636 188.452 48.0214C188.66 48.1577 188.908 48.2251 189.159 48.2136C189.413 48.2216 189.664 48.1546 189.878 48.0214C190.097 47.8586 190.266 47.6414 190.368 47.3928L190.814 47.5524C190.698 47.9061 190.467 48.2133 190.155 48.427C189.862 48.619 189.518 48.722 189.165 48.723Z" fill="#151515"/>
<path d="M198.981 54.7979V53.6336H195.092V49.1431H195.897V53.001H198.149V49.1431H198.954V53.001H199.67V54.7941L198.981 54.7979Z" fill="#151515"/>
<path d="M202.774 53.5863C202.065 53.5863 201.506 53.3841 201.096 52.9798C200.684 52.5775 200.48 52.0264 200.48 51.3132C200.467 50.8911 200.559 50.4723 200.745 50.0927C200.915 49.7627 201.174 49.4865 201.495 49.2957C201.833 49.0998 202.22 49.0008 202.612 49.0096C202.975 48.9975 203.334 49.0874 203.648 49.2689C203.934 49.443 204.159 49.6982 204.295 50.0012C204.45 50.3554 204.526 50.7385 204.517 51.1244V51.3876H201.109V50.9127H203.97L203.82 51.0271C203.843 50.6488 203.735 50.274 203.513 49.965C203.404 49.8363 203.266 49.7348 203.11 49.6686C202.955 49.6023 202.785 49.5732 202.616 49.5836C202.425 49.5734 202.235 49.6082 202.061 49.6851C201.887 49.762 201.734 49.8789 201.614 50.026C201.361 50.3759 201.236 50.8012 201.26 51.2312V51.3113C201.26 51.849 201.393 52.2648 201.662 52.5298C201.81 52.6714 201.986 52.781 202.179 52.8519C202.372 52.9228 202.578 52.9534 202.783 52.9417C203.036 52.9444 203.287 52.9065 203.527 52.8292C203.771 52.7448 203.996 52.6154 204.191 52.4478L204.457 53.0008C204.24 53.1907 203.986 53.3336 203.71 53.4203C203.409 53.5268 203.093 53.5829 202.774 53.5863Z" fill="#151515"/>
<path d="M205.729 53.5862V49.1431H206.538V50.9806H208.951V49.1431H209.768V53.5862H208.951V51.6161H206.538V53.5862H205.729Z" fill="#151515"/>
<path d="M212.195 53.5862V49.7882H210.576V49.1431H214.615V49.7882H212.999V53.5862H212.195Z" fill="#151515"/>
<path d="M215.495 55.4712V50.1457C215.495 49.974 215.495 49.7984 215.477 49.6209C215.459 49.4434 215.445 49.2658 215.422 49.0883H216.218L216.317 50.1187H216.218C216.301 49.7866 216.507 49.4969 216.796 49.3063C217.11 49.1028 217.48 48.9991 217.856 49.0092C218.228 49.0011 218.595 49.0968 218.914 49.2851C219.222 49.4759 219.466 49.7518 219.614 50.0781C219.79 50.4678 219.875 50.891 219.864 51.3169C219.875 51.7442 219.79 52.1685 219.614 52.5595C219.467 52.8881 219.223 53.1662 218.914 53.3583C218.595 53.5467 218.228 53.6424 217.856 53.6343C217.485 53.6432 217.119 53.5394 216.81 53.3371C216.523 53.1451 216.315 52.8603 216.22 52.5325H216.319V55.4712H215.495ZM217.658 52.9937C217.845 53.0012 218.032 52.9669 218.205 52.8934C218.377 52.8199 218.53 52.7091 218.653 52.5692C218.9 52.2836 219.022 51.8668 219.022 51.3169C219.022 50.767 218.9 50.3522 218.653 50.0743C218.529 49.9365 218.375 49.8276 218.203 49.7555C218.031 49.6833 217.845 49.6499 217.658 49.6575C217.472 49.6505 217.288 49.6843 217.118 49.7564C216.948 49.8286 216.796 49.9372 216.674 50.0743C216.425 50.3483 216.301 50.7625 216.301 51.3169C216.301 51.8714 216.423 52.2888 216.667 52.5692C216.789 52.7105 216.942 52.8223 217.116 52.8959C217.289 52.9695 217.477 53.003 217.666 52.9937H217.658Z" fill="#151515"/>
<path d="M11.1789 44.9411C11.0967 42.8941 12.6737 41.7964 13.3903 44.8054C14.1069 47.8145 15.0803 54.5287 15.0803 54.5287C15.0803 54.5287 11.297 53.866 11.3381 53.5973C11.3792 53.3286 11.1789 44.9411 11.1789 44.9411Z" fill="#00578A"/>
<path d="M7.5428 40.0185C7.44217 37.4912 9.39804 36.1473 10.2857 39.8502C11.1733 43.5531 12.3861 51.8362 12.3861 51.8362C12.3861 51.8362 7.68987 51.0201 7.74148 50.6886C7.79308 50.3571 7.5428 40.0185 7.5428 40.0185Z" fill="#007D99"/>
<path d="M3.88815 36.3913C3.77708 33.5803 5.90761 32.0802 6.8719 36.2048C7.83619 40.3293 9.15641 49.5471 9.15641 49.5471C9.15641 49.5471 3.0425 43.1583 3.09803 42.7954C3.15357 42.4325 3.88815 36.3913 3.88815 36.3913Z" fill="#01A6A0"/>
<path d="M28.5765 73.1089C27.7136 59.5526 13.6377 59.4668 7.59469 54.6587C1.55169 49.8507 0.224122 37.5779 0.596863 34.8243C0.969603 32.0707 2.43248 30.7105 3.64772 34.5564C4.86295 38.4023 5.99904 45.3285 10.5843 48.5288C15.1695 51.729 23.7607 52.1501 18.8714 48.6155C12.4888 44.0014 13.5941 39.5417 15.1101 38.609C16.2695 37.8959 18.9837 42.8887 22.7647 44.9278C26.5457 46.9669 32.2024 48.5709 34.8193 54.923C37.7941 62.1439 28.5765 73.1089 28.5765 73.1089Z" fill="#00C6BF"/>
<path d="M57.2616 6.02657C53.0957 3.18106 46.1738 1.55289 39.3819 5.92452C36.6284 8.548 34.3134 12.1029 32.7531 16.7196C32.7531 16.7196 24.768 7.92777 11.9924 12.723C-0.783225 17.5183 0.00966736 31.3707 0.00966736 31.3707C0.00966736 31.3707 3.68607 20.0908 15.9798 19.3763C28.2736 18.6617 34.6748 30.5144 34.6748 30.5144C34.6748 30.5144 36.2357 18.5059 47.3848 15.6477C57.667 13.0216 63.8547 21.104 61.2542 31.1641C65.6852 20.9253 63.8827 10.5462 57.2616 6.02657Z" fill="#00578A"/>
<path d="M52.2402 48.984C52.2402 48.984 41.7148 36.4881 23.1582 43.1607C23.1582 43.1607 32.6414 42.9596 36.9605 53.7896C39.6482 60.5285 33.1253 70.4163 33.1253 70.4163C33.1253 70.4163 44.5943 60.9897 52.2402 48.984Z" fill="#00578A"/>
<path d="M71.3442 8.42509C65.0524 -0.83138 49.3254 -3.57641 39.3519 5.89651C46.1489 1.53438 53.076 3.15902 57.245 5.99835C63.8787 10.5082 65.6647 20.8545 61.2508 31.0863C60.9792 32.1239 60.6312 33.1402 60.2098 34.1268C55.9591 44.1294 50.8869 50.4956 50.8869 50.4956C43.4648 61.7001 32.8516 70.5508 32.8516 70.5508C73.9601 53.3264 82.1291 24.305 71.3442 8.42509Z" fill="#00C6BF"/>
<path style="mix-blend-mode:multiply" opacity="0.29" d="M56.6412 16.5774C62.147 19.9568 62.2475 26.7863 61.134 31.1015C65.5422 20.8723 63.7449 10.5285 57.1428 6.0198C52.9889 3.18118 46.0868 1.55696 39.3145 5.91799C44.7852 2.73314 57.5208 0.146558 56.6412 16.5774Z" fill="#00578A"/>
<path style="mix-blend-mode:multiply" opacity="0.29" d="M48.4875 45.6426C46.2541 53.6628 37.1416 66.439 33.1211 70.4161C33.1211 70.4161 42.8591 62.485 52.2398 48.7616C51.0784 47.6922 49.8276 46.5337 48.4875 45.6426Z" fill="#00578A"/>
</svg>
